<?xml version="1.0" encoding="utf-8"?>
<!-- Generator: Adobe Illustrator 24.3.0, SVG Export Plug-In . SVG Version: 6.00 Build 0)  -->
<svg version="1.1" id="Layer_1" xmlns="http://www.w3.org/2000/svg" xmlns:xlink="http://www.w3.org/1999/xlink" x="0px" y="0px"
	 viewBox="0 0 1000 1000" style="enable-background:new 0 0 1000 1000;" xml:space="preserve">
<style type="text/css">
	.st0{fill:#173E51;}
	.st1{fill:url(#SVGID_1_);}
	.st2{fill:url(#SVGID_2_);}
	.st3{fill:url(#SVGID_3_);}
	.st4{fill:url(#SVGID_4_);}
	.st5{fill:#14A1B5;}
	.st6{fill:url(#SVGID_5_);}
	.st7{fill:url(#SVGID_6_);}
	.st8{opacity:0.8;fill:#FFFFFF;}
	.st9{opacity:0.7;}
	.st10{fill:#FFFFFF;}
	.st11{fill:url(#SVGID_7_);}
	.st12{fill:url(#SVGID_8_);}
	.st13{fill:url(#SVGID_9_);}
	.st14{fill:url(#SVGID_10_);}
	.st15{fill:url(#SVGID_11_);}
	.st16{fill:url(#SVGID_12_);}
	.st17{fill:url(#SVGID_13_);}
	.st18{fill:url(#SVGID_14_);}
	.st19{fill:url(#SVGID_15_);}
	.st20{fill:url(#SVGID_16_);}
	.st21{fill:url(#SVGID_17_);}
	.st22{fill:url(#SVGID_18_);}
	.st23{fill:url(#SVGID_19_);}
	.st24{fill:url(#SVGID_20_);}
	.st25{fill:url(#SVGID_21_);}
	.st26{fill:url(#SVGID_22_);}
	.st27{fill:url(#SVGID_23_);}
	.st28{fill:url(#SVGID_24_);}
	.st29{fill:url(#SVGID_25_);}
	.st30{fill:url(#SVGID_26_);}
	.st31{fill:url(#SVGID_27_);}
	.st32{fill:url(#SVGID_28_);}
	.st33{fill:url(#SVGID_29_);}
	.st34{fill:url(#SVGID_30_);}
</style>
<rect class="st0" width="1000" height="1000"/>
<g>
	<g>
		<g>
			<path class="st10" d="M457.5,493.3c-1.3,5-2.7,9.9-4.2,14.8c-1.5,4.9-3,9.8-4.7,14.8h-11.4c-1.2-2.7-2.5-6-3.8-9.8
				c-1.4-3.8-2.8-7.9-4.3-12.4c-1.5-4.5-3-9.2-4.5-14.2c-1.5-5-3-10.1-4.5-15.2h15.4c0.5,2.4,1.1,4.9,1.7,7.7c0.6,2.8,1.3,5.6,2,8.6
				c0.7,2.9,1.4,5.9,2.2,8.9c0.8,3,1.5,5.8,2.3,8.6c0.8-2.9,1.7-5.8,2.5-8.8c0.8-3,1.6-6,2.4-8.9c0.8-2.9,1.5-5.7,2.2-8.4
				c0.7-2.7,1.3-5.2,1.8-7.6h10.6c0.5,2.4,1.1,4.9,1.8,7.6c0.7,2.7,1.3,5.5,2.1,8.4c0.7,2.9,1.5,5.9,2.3,8.9c0.8,3,1.6,5.9,2.5,8.8
				c0.8-2.7,1.6-5.6,2.4-8.6c0.8-3,1.5-5.9,2.2-8.9c0.7-2.9,1.3-5.8,2-8.6c0.6-2.8,1.2-5.3,1.7-7.7h15.2c-1.4,5.1-2.9,10.1-4.5,15.2
				s-3,9.7-4.5,14.2c-1.5,4.5-2.9,8.6-4.3,12.4c-1.4,3.8-2.7,7.1-3.9,9.8h-11.4c-1.6-5-3.2-9.9-4.8-14.8
				C460.3,503.2,458.8,498.3,457.5,493.3z"/>
			<path class="st10" d="M499.4,497.6c0-4.6,0.7-8.6,2.1-12c1.4-3.4,3.3-6.3,5.5-8.6c2.3-2.3,4.9-4,7.9-5.2c3-1.2,6-1.8,9.2-1.8
				c7.3,0,13.1,2.2,17.4,6.7c4.2,4.5,6.4,11.1,6.4,19.8c0,0.9,0,1.8-0.1,2.8c-0.1,1-0.1,1.9-0.2,2.7h-33.1c0.3,3,1.7,5.4,4.2,7.2
				c2.5,1.8,5.8,2.6,10,2.6c2.7,0,5.3-0.2,7.9-0.7c2.6-0.5,4.7-1.1,6.3-1.8l2,11.9c-0.8,0.4-1.8,0.8-3.1,1.2c-1.3,0.4-2.8,0.7-4.4,1
				c-1.6,0.3-3.3,0.5-5.1,0.7c-1.8,0.2-3.7,0.3-5.5,0.3c-4.6,0-8.7-0.7-12.1-2.1c-3.4-1.4-6.3-3.3-8.5-5.6c-2.3-2.4-3.9-5.2-5-8.5
				C499.9,504.9,499.4,501.3,499.4,497.6z M533.7,492c-0.1-1.2-0.3-2.5-0.6-3.6c-0.4-1.2-0.9-2.2-1.7-3.1c-0.8-0.9-1.7-1.7-2.8-2.3
				c-1.1-0.6-2.6-0.9-4.3-0.9c-1.6,0-3,0.3-4.2,0.8c-1.2,0.6-2.2,1.3-2.9,2.2c-0.8,0.9-1.4,2-1.8,3.2c-0.4,1.2-0.7,2.4-0.9,3.7
				H533.7z"/>
			<path class="st10" d="M607,497.2c0,4.1-0.6,7.8-1.8,11.2c-1.2,3.3-3,6.2-5.2,8.5c-2.3,2.4-5.1,4.2-8.4,5.4
				c-3.3,1.3-7.1,1.9-11.4,1.9c-1.8,0-3.6-0.1-5.5-0.2c-1.9-0.2-3.8-0.4-5.7-0.6c-1.9-0.3-3.6-0.6-5.3-0.9c-1.7-0.4-3.2-0.7-4.5-1.1
				v-72.1l14.6-2.4v25.7c1.6-0.7,3.3-1.3,5.1-1.7c1.8-0.4,3.7-0.6,5.7-0.6c3.7,0,6.9,0.6,9.7,1.9c2.8,1.3,5.2,3.1,7.1,5.4
				c1.9,2.4,3.3,5.2,4.3,8.5C606.5,489.4,607,493.1,607,497.2z M592.1,496.8c0-9.4-3.5-14.1-10.4-14.1c-1.5,0-3,0.2-4.5,0.6
				c-1.5,0.4-2.7,0.9-3.6,1.5v26.6c0.7,0.1,1.6,0.2,2.7,0.3c1.1,0.1,2.3,0.1,3.6,0.1c4,0,7-1.4,9-4.1
				C591.1,504.9,592.1,501.3,592.1,496.8z"/>
			<path class="st10" d="M617.8,458.5l14.6-2.4v15.2H650v12.2h-17.6v18.1c0,3.1,0.5,5.5,1.6,7.4c1.1,1.8,3.3,2.7,6.5,2.7
				c1.6,0,3.2-0.1,4.9-0.4c1.7-0.3,3.2-0.7,4.6-1.2l2.1,11.4c-1.8,0.7-3.7,1.3-5.9,1.9c-2.2,0.5-4.8,0.8-7.9,0.8
				c-4,0-7.3-0.5-9.9-1.6c-2.6-1.1-4.7-2.6-6.3-4.5c-1.6-1.9-2.7-4.3-3.3-7c-0.6-2.7-0.9-5.8-0.9-9.1V458.5z"/>
			<path class="st10" d="M677.8,456.5c0,2.7-0.9,4.8-2.6,6.3c-1.7,1.5-3.8,2.3-6.1,2.3c-2.4,0-4.4-0.8-6.1-2.3
				c-1.7-1.5-2.6-3.6-2.6-6.3c0-2.7,0.9-4.8,2.6-6.3c1.7-1.5,3.8-2.3,6.1-2.3c2.4,0,4.4,0.8,6.1,2.3
				C677,451.7,677.8,453.8,677.8,456.5z M676.5,522.9h-14.6v-51.6h14.6V522.9z"/>
			<path class="st10" d="M735.7,521.3c-1.3,0.4-2.8,0.8-4.5,1.1c-1.7,0.4-3.5,0.7-5.3,0.9c-1.9,0.3-3.8,0.5-5.7,0.6
				c-1.9,0.2-3.8,0.2-5.5,0.2c-4.3,0-8-0.6-11.4-1.9c-3.3-1.2-6.1-3-8.4-5.3c-2.3-2.3-4-5.1-5.2-8.4c-1.2-3.3-1.8-7-1.8-11.1
				c0-4.2,0.5-8,1.6-11.3c1-3.4,2.5-6.2,4.5-8.6c2-2.4,4.4-4.2,7.2-5.4c2.8-1.2,6.1-1.9,9.8-1.9c2,0,3.8,0.2,5.4,0.6
				c1.6,0.4,3.2,0.9,4.9,1.7v-23.3l14.6-2.4V521.3z M702.6,496.8c0,4.5,1,8.1,3,10.9c2,2.7,5,4.1,9,4.1c1.3,0,2.5,0,3.6-0.1
				c1.1-0.1,2-0.2,2.7-0.3v-26.6c-0.9-0.6-2.1-1.1-3.6-1.5c-1.5-0.4-3-0.6-4.5-0.6C706.1,482.6,702.6,487.4,702.6,496.8z"/>
			<path class="st10" d="M747,497.6c0-4.6,0.7-8.6,2.1-12c1.4-3.4,3.3-6.3,5.5-8.6c2.3-2.3,4.9-4,7.9-5.2c3-1.2,6-1.8,9.2-1.8
				c7.3,0,13.1,2.2,17.4,6.7c4.2,4.5,6.4,11.1,6.4,19.8c0,0.9,0,1.8-0.1,2.8c-0.1,1-0.1,1.9-0.2,2.7H762c0.3,3,1.7,5.4,4.2,7.2
				c2.5,1.8,5.8,2.6,10,2.6c2.7,0,5.3-0.2,7.9-0.7c2.6-0.5,4.7-1.1,6.3-1.8l2,11.9c-0.8,0.4-1.8,0.8-3.1,1.2c-1.3,0.4-2.8,0.7-4.4,1
				c-1.6,0.3-3.3,0.5-5.1,0.7c-1.8,0.2-3.7,0.3-5.5,0.3c-4.6,0-8.7-0.7-12.1-2.1c-3.4-1.4-6.3-3.3-8.5-5.6c-2.3-2.4-3.9-5.2-5-8.5
				C747.5,504.9,747,501.3,747,497.6z M781.3,492c-0.1-1.2-0.3-2.5-0.6-3.6c-0.4-1.2-0.9-2.2-1.7-3.1c-0.8-0.9-1.7-1.7-2.8-2.3
				c-1.1-0.6-2.6-0.9-4.3-0.9c-1.6,0-3,0.3-4.2,0.8c-1.2,0.6-2.2,1.3-2.9,2.2c-0.8,0.9-1.4,2-1.8,3.2c-0.4,1.2-0.7,2.4-0.9,3.7
				H781.3z"/>
		</g>
	</g>
	<g>
		<linearGradient id="SVGID_1_" gradientUnits="userSpaceOnUse" x1="259.4633" y1="443.778" x2="265.0488" y2="515.5908">
			<stop  offset="0" style="stop-color:#FDB813"/>
			<stop  offset="1" style="stop-color:#F15A24"/>
		</linearGradient>
		<path class="st1" d="M254.7,519.8h-11.8c-4,0-6.7-4.2-5-7.8l28.4-51c0.9-1.9,2.8-3.2,5-3.2h11.8c4,0,6.7,4.2,5,7.8l-28.4,51
			C258.8,518.5,256.8,519.8,254.7,519.8z"/>
		<linearGradient id="SVGID_2_" gradientUnits="userSpaceOnUse" x1="297.5332" y1="440.817" x2="303.1186" y2="512.6298">
			<stop  offset="0" style="stop-color:#FDB813"/>
			<stop  offset="1" style="stop-color:#F15A24"/>
		</linearGradient>
		<path class="st2" d="M293,519.8h-11.8c-4,0-6.7-4.2-5-7.8l28.4-51c0.9-1.9,2.8-3.2,5-3.2h11.8c4,0,6.7,4.2,5,7.8l-28.4,51
			C297.1,518.5,295.1,519.8,293,519.8z"/>
		<linearGradient id="SVGID_3_" gradientUnits="userSpaceOnUse" x1="235.361" y1="445.6527" x2="240.9464" y2="517.4654">
			<stop  offset="0" style="stop-color:#FDB813"/>
			<stop  offset="1" style="stop-color:#F15A24"/>
		</linearGradient>
		<circle class="st3" cx="237.4" cy="471.4" r="13.6"/>
		<linearGradient id="SVGID_4_" gradientUnits="userSpaceOnUse" x1="213.6288" y1="447.343" x2="219.2142" y2="519.1556">
			<stop  offset="0" style="stop-color:#FDB813"/>
			<stop  offset="1" style="stop-color:#F15A24"/>
		</linearGradient>
		<circle class="st4" cx="218.2" cy="506.2" r="13.6"/>
		<path class="st5" d="M226.7,525.6c0,0,10,8.2,48.3,8c59.9-0.4,51.8-78,86.6-78c37,0,40.2,50.7-6.9,59.5c0,0,3.5-1.3,4.4-6.9
			c1.1-6.6-6.2-7.6-9.6-1.9C337.1,527.1,286.9,588.4,226.7,525.6z"/>
		<linearGradient id="SVGID_5_" gradientUnits="userSpaceOnUse" x1="392.1175" y1="489.5384" x2="320.5043" y2="480.1629">
			<stop  offset="0" style="stop-color:#FFFFFF"/>
			<stop  offset="1" style="stop-color:#FFFFFF;stop-opacity:0"/>
		</linearGradient>
		<path class="st6" d="M361.6,455.5c-3,0-5.7,0.6-8.1,1.6c0.8-0.1,19.1-3.4,21.1,12c1.4,10.7-22.7,10.2-16.4,19.7
			c5.9,8.7,5.9,18.6-1.2,24.8c-1.2,1-2.3,1.4-2.3,1.4C401.8,506.2,398.7,455.5,361.6,455.5z"/>
		<linearGradient id="SVGID_6_" gradientUnits="userSpaceOnUse" x1="378.8638" y1="463.8121" x2="206.5133" y2="575.7202">
			<stop  offset="0" style="stop-color:#215675"/>
			<stop  offset="1" style="stop-color:#215675;stop-opacity:0"/>
		</linearGradient>
		<path class="st7" d="M360.2,502.2c-1.6-5.8-14-10.1-22,2.1c-8,12.2-18.8,30-43.5,39.1c-27,10-63.3-14.6-67.7-17.6
			c-0.3-0.2-0.4-0.3-0.4-0.3c60.2,62.8,110.4,1.5,122.8-19.4c3.4-5.7,10.7-4.6,9.6,1.9c-0.9,5.6-4.4,6.9-4.4,6.9
			C359.2,514,361.4,506.4,360.2,502.2z"/>
		<path class="st8" d="M246.1,534c0,0,41.1,15.4,67.6-12.1c24.2-25.1,28.7-53.6,36.9-58.7c0,0,12-7.2,19.2,5.2
			c0,0-12.1-7.7-18.5,3.1c-4.1,6.9-11.9,21.3-16.9,30.7c-6.1,11.4-14.5,21.6-24.9,29.3C294.8,542.6,270.8,546,246.1,534z"/>
		<g class="st9">
			<path class="st8" d="M321.4,461.2h-10.8h-0.5h-0.7c-0.7,0-1.3,0.4-1.6,1l-27.4,49.5c-0.5,1.2,0.3,2.5,1.6,2.5h1.2
				c0.7,0,1.3-0.4,1.6-1l25.6-46.3c0.4-0.7,1.2-1.2,2-1.2h7.7c0.4,0,0.8-0.2,1-0.6l1.2-2.3C322.7,462,322.2,461.2,321.4,461.2z"/>
			<path class="st8" d="M281.7,465.6c0.4,0,0.8-0.2,1-0.6l1.2-2.3c0.4-0.7-0.1-1.6-1-1.6h-10.8h-0.5H271c-0.7,0-1.3,0.4-1.6,1
				L242,511.7c-0.5,1.2,0.3,2.5,1.6,2.5h1.2c0.7,0,1.3-0.4,1.6-1l25.6-46.3c0.4-0.7,1.2-1.2,2-1.2H281.7z"/>
		</g>
		<g class="st9">
			<path class="st10" d="M229.5,473.4c-1.1,0-2-0.9-2-2c0-5.4,4.4-9.8,9.8-9.8c1.1,0,2,0.9,2,2c0,1.1-0.9,2-2,2
				c-3.2,0-5.9,2.6-5.9,5.9C231.5,472.5,230.6,473.4,229.5,473.4z"/>
		</g>
		<g class="st9">
			<path class="st10" d="M210.6,508.4c-1.1,0-2-0.9-2-2c0-5.4,4.4-9.8,9.8-9.8c1.1,0,2,0.9,2,2c0,1.1-0.9,2-2,2
				c-3.2,0-5.9,2.6-5.9,5.9C212.6,507.5,211.7,508.4,210.6,508.4z"/>
		</g>
	</g>
</g>
</svg>
