<?xml version="1.0" encoding="utf-8"?>
<!-- Generator: Adobe Illustrator 24.3.0, SVG Export Plug-In . SVG Version: 6.00 Build 0)  -->
<svg version="1.1" id="Layer_1" xmlns="http://www.w3.org/2000/svg" xmlns:xlink="http://www.w3.org/1999/xlink" x="0px" y="0px"
	 viewBox="0 0 1000 1000" style="enable-background:new 0 0 1000 1000;" xml:space="preserve">
<style type="text/css">
	.st0{fill:#173E51;}
	.st1{fill:url(#SVGID_1_);}
	.st2{fill:url(#SVGID_2_);}
	.st3{fill:url(#SVGID_3_);}
	.st4{fill:url(#SVGID_4_);}
	.st5{fill:#14A1B5;}
	.st6{fill:url(#SVGID_5_);}
	.st7{fill:url(#SVGID_6_);}
	.st8{opacity:0.8;fill:#FFFFFF;}
	.st9{opacity:0.7;}
	.st10{fill:#FFFFFF;}
	.st11{fill:url(#SVGID_7_);}
	.st12{fill:url(#SVGID_8_);}
	.st13{fill:url(#SVGID_9_);}
	.st14{fill:url(#SVGID_10_);}
	.st15{fill:url(#SVGID_11_);}
	.st16{fill:url(#SVGID_12_);}
	.st17{fill:url(#SVGID_13_);}
	.st18{fill:url(#SVGID_14_);}
	.st19{fill:url(#SVGID_15_);}
	.st20{fill:url(#SVGID_16_);}
	.st21{fill:url(#SVGID_17_);}
	.st22{fill:url(#SVGID_18_);}
	.st23{fill:url(#SVGID_19_);}
	.st24{fill:url(#SVGID_20_);}
	.st25{fill:url(#SVGID_21_);}
	.st26{fill:url(#SVGID_22_);}
	.st27{fill:url(#SVGID_23_);}
	.st28{fill:url(#SVGID_24_);}
	.st29{fill:url(#SVGID_25_);}
	.st30{fill:url(#SVGID_26_);}
	.st31{fill:url(#SVGID_27_);}
	.st32{fill:url(#SVGID_28_);}
	.st33{fill:url(#SVGID_29_);}
	.st34{fill:url(#SVGID_30_);}
</style>
<g>
	<g>
		<g>
			<path class="st0" d="M251.3,674c-1.9,7.2-3.9,14.4-6.1,21.5c-2.1,7.1-4.4,14.3-6.8,21.5H222c-1.7-4-3.6-8.7-5.6-14.2
				c-2-5.5-4.1-11.5-6.2-18c-2.1-6.5-4.3-13.4-6.6-20.7c-2.2-7.3-4.4-14.6-6.5-22h22.4c0.8,3.4,1.6,7.1,2.5,11.2
				c0.9,4,1.9,8.2,2.9,12.5c1,4.3,2.1,8.6,3.2,12.9c1.1,4.3,2.2,8.5,3.4,12.5c1.2-4.2,2.4-8.5,3.6-12.8c1.2-4.4,2.3-8.7,3.4-12.9
				c1.1-4.2,2.1-8.3,3.1-12.2c1-3.9,1.9-7.6,2.6-11h15.4c0.8,3.4,1.6,7.1,2.6,11c0.9,3.9,1.9,8,3,12.2c1,4.2,2.1,8.5,3.3,12.9
				c1.1,4.4,2.3,8.6,3.6,12.8c1.1-4,2.3-8.1,3.4-12.5c1.1-4.3,2.2-8.6,3.2-12.9c1-4.3,2-8.4,2.9-12.5c0.9-4,1.7-7.8,2.5-11.2h22.1
				c-2.1,7.4-4.3,14.7-6.5,22c-2.2,7.3-4.4,14.1-6.6,20.7c-2.1,6.5-4.2,12.5-6.3,18c-2,5.5-3.9,10.3-5.6,14.2h-16.5
				c-2.4-7.2-4.7-14.4-7-21.5C255.3,688.4,253.2,681.2,251.3,674z"/>
			<path class="st0" d="M312,680.1c0-6.6,1-12.5,3.1-17.4c2-5,4.7-9.1,8-12.5c3.3-3.3,7.1-5.8,11.5-7.5c4.3-1.7,8.8-2.6,13.3-2.6
				c10.6,0,19,3.3,25.2,9.8c6.2,6.5,9.3,16.1,9.3,28.7c0,1.2,0,2.6-0.1,4.1c-0.1,1.5-0.2,2.8-0.3,3.9h-48.1
				c0.5,4.4,2.5,7.8,6.1,10.4c3.6,2.6,8.4,3.8,14.5,3.8c3.9,0,7.7-0.4,11.5-1.1c3.7-0.7,6.8-1.6,9.2-2.6l2.8,17.2
				c-1.1,0.6-2.7,1.1-4.6,1.7c-1.9,0.6-4,1.1-6.3,1.5c-2.3,0.4-4.8,0.8-7.5,1.1c-2.7,0.3-5.3,0.4-8,0.4c-6.7,0-12.6-1-17.6-3
				c-5-2-9.1-4.7-12.4-8.2c-3.3-3.5-5.7-7.6-7.3-12.3C312.8,690.7,312,685.6,312,680.1z M361.9,672c-0.1-1.8-0.4-3.6-0.9-5.3
				c-0.5-1.7-1.3-3.2-2.4-4.6c-1.1-1.3-2.5-2.4-4.1-3.3c-1.7-0.9-3.7-1.3-6.2-1.3c-2.4,0-4.4,0.4-6.1,1.2c-1.7,0.8-3.1,1.9-4.3,3.2
				c-1.1,1.3-2,2.9-2.6,4.6c-0.6,1.8-1.1,3.5-1.4,5.3H361.9z"/>
			<path class="st0" d="M468.4,679.5c0,6-0.9,11.4-2.6,16.2c-1.8,4.8-4.3,9-7.6,12.4c-3.3,3.4-7.4,6.1-12.2,7.9
				c-4.8,1.9-10.4,2.8-16.5,2.8c-2.6,0-5.2-0.1-8-0.4c-2.8-0.2-5.6-0.5-8.3-0.9c-2.7-0.4-5.3-0.8-7.8-1.4c-2.5-0.5-4.7-1.1-6.6-1.6
				V609.9l21.2-3.4v37.3c2.4-1,4.8-1.9,7.4-2.4c2.6-0.6,5.3-0.9,8.3-0.9c5.3,0,10,0.9,14.1,2.8c4.1,1.9,7.5,4.5,10.3,7.9
				c2.8,3.4,4.8,7.5,6.3,12.3C467.7,668.3,468.4,673.6,468.4,679.5z M446.8,679c0-13.7-5-20.5-15.1-20.5c-2.2,0-4.3,0.3-6.5,0.9
				c-2.1,0.6-3.9,1.3-5.2,2.1V700c1,0.2,2.4,0.4,4,0.5c1.6,0.1,3.4,0.2,5.3,0.2c5.8,0,10.2-2,13.1-6
				C445.3,690.8,446.8,685.5,446.8,679z"/>
			<path class="st0" d="M484.1,623.4l21.2-3.4v22.1h25.5v17.7h-25.5v26.3c0,4.5,0.8,8,2.3,10.7c1.6,2.7,4.7,4,9.5,4
				c2.3,0,4.6-0.2,7.1-0.6s4.6-1,6.6-1.8l3,16.5c-2.6,1-5.4,1.9-8.5,2.7s-7,1.1-11.5,1.1c-5.8,0-10.6-0.8-14.4-2.4
				c-3.8-1.6-6.8-3.7-9.1-6.6c-2.3-2.8-3.9-6.2-4.8-10.2c-0.9-4-1.4-8.4-1.4-13.2V623.4z"/>
			<path class="st0" d="M571.3,620.4c0,3.9-1.3,7-3.8,9.2c-2.5,2.2-5.5,3.3-8.9,3.3s-6.4-1.1-8.9-3.3c-2.5-2.2-3.8-5.3-3.8-9.2
				c0-3.9,1.3-7,3.8-9.2c2.5-2.2,5.5-3.3,8.9-3.3s6.4,1.1,8.9,3.3C570,613.5,571.3,616.5,571.3,620.4z M569.3,717H548v-74.9h21.2
				V717z"/>
			<path class="st0" d="M655.3,714.6c-1.9,0.6-4.1,1.1-6.6,1.6c-2.5,0.5-5.1,1-7.8,1.4c-2.7,0.4-5.5,0.7-8.3,0.9
				c-2.8,0.2-5.5,0.4-8,0.4c-6.2,0-11.7-0.9-16.5-2.7c-4.8-1.8-8.9-4.4-12.2-7.8c-3.3-3.4-5.9-7.5-7.6-12.2
				c-1.8-4.8-2.6-10.2-2.6-16.2c0-6.1,0.8-11.6,2.3-16.5c1.5-4.9,3.7-9,6.6-12.5c2.8-3.4,6.3-6,10.5-7.8c4.1-1.8,8.9-2.7,14.2-2.7
				c2.9,0,5.6,0.3,7.9,0.9c2.3,0.6,4.7,1.4,7.1,2.4v-33.9l21.2-3.4V714.6z M607.3,679c0,6.6,1.5,11.8,4.4,15.8c2.9,4,7.3,6,13.1,6
				c1.9,0,3.7-0.1,5.3-0.2c1.6-0.1,2.9-0.3,4-0.5v-38.6c-1.3-0.9-3.1-1.6-5.2-2.1c-2.1-0.6-4.3-0.9-6.5-0.9
				C612.3,658.5,607.3,665.3,607.3,679z"/>
			<path class="st0" d="M671.7,680.1c0-6.6,1-12.5,3.1-17.4c2-5,4.7-9.1,8-12.5c3.3-3.3,7.1-5.8,11.5-7.5c4.3-1.7,8.8-2.6,13.3-2.6
				c10.6,0,19,3.3,25.2,9.8c6.2,6.5,9.3,16.1,9.3,28.7c0,1.2,0,2.6-0.1,4.1c-0.1,1.5-0.2,2.8-0.3,3.9h-48.1
				c0.5,4.4,2.5,7.8,6.1,10.4c3.6,2.6,8.4,3.8,14.5,3.8c3.9,0,7.7-0.4,11.5-1.1c3.7-0.7,6.8-1.6,9.2-2.6l2.8,17.2
				c-1.1,0.6-2.7,1.1-4.6,1.7c-1.9,0.6-4,1.1-6.3,1.5c-2.3,0.4-4.8,0.8-7.5,1.1c-2.7,0.3-5.3,0.4-8,0.4c-6.7,0-12.6-1-17.6-3
				c-5-2-9.1-4.7-12.4-8.2c-3.3-3.5-5.7-7.6-7.3-12.3C672.4,690.7,671.7,685.6,671.7,680.1z M721.5,672c-0.1-1.8-0.4-3.6-0.9-5.3
				c-0.5-1.7-1.3-3.2-2.4-4.6c-1.1-1.3-2.5-2.4-4.1-3.3c-1.7-0.9-3.7-1.3-6.2-1.3c-2.4,0-4.4,0.4-6.1,1.2c-1.7,0.8-3.1,1.9-4.3,3.2
				c-1.1,1.3-2,2.9-2.6,4.6c-0.6,1.8-1.1,3.5-1.4,5.3H721.5z"/>
		</g>
	</g>
	<g>
		<linearGradient id="SVGID_1_" gradientUnits="userSpaceOnUse" x1="400.5695" y1="244.7518" x2="417.8204" y2="466.548">
			<stop  offset="0" style="stop-color:#FDB813"/>
			<stop  offset="1" style="stop-color:#F15A24"/>
		</linearGradient>
		<path class="st1" d="M385.8,479.5h-36.5c-12.4,0-20.6-12.9-15.4-24.1l87.7-157.6c2.8-6,8.8-9.8,15.4-9.8h36.5
			c12.4,0,20.6,12.9,15.4,24.1l-87.7,157.6C398.4,475.7,392.4,479.5,385.8,479.5z"/>
		<linearGradient id="SVGID_2_" gradientUnits="userSpaceOnUse" x1="518.1495" y1="235.6067" x2="535.4004" y2="457.4029">
			<stop  offset="0" style="stop-color:#FDB813"/>
			<stop  offset="1" style="stop-color:#F15A24"/>
		</linearGradient>
		<path class="st2" d="M504.1,479.5h-36.5c-12.4,0-20.6-12.9-15.4-24.1l87.7-157.6c2.8-6,8.8-9.8,15.4-9.8h36.5
			c12.4,0,20.6,12.9,15.4,24.1l-87.7,157.6C516.7,475.7,510.7,479.5,504.1,479.5z"/>
		<linearGradient id="SVGID_3_" gradientUnits="userSpaceOnUse" x1="326.1284" y1="250.5417" x2="343.3793" y2="472.3379">
			<stop  offset="0" style="stop-color:#FDB813"/>
			<stop  offset="1" style="stop-color:#F15A24"/>
		</linearGradient>
		<circle class="st3" cx="332.3" cy="330" r="42"/>
		<linearGradient id="SVGID_4_" gradientUnits="userSpaceOnUse" x1="259.0079" y1="255.7622" x2="276.2587" y2="477.5583">
			<stop  offset="0" style="stop-color:#FDB813"/>
			<stop  offset="1" style="stop-color:#F15A24"/>
		</linearGradient>
		<circle class="st4" cx="273.1" cy="437.5" r="42"/>
		<path class="st5" d="M299.4,497.4c0,0,30.8,25.4,149.2,24.6c184.9-1.2,160.1-241,267.4-241c114.4,0.1,124.1,156.4-21.3,183.7
			c0,0,10.7-3.9,13.6-21.3c3.4-20.2-19.2-23.6-29.7-6C640.2,502.1,485.3,691.4,299.4,497.4z"/>
		<linearGradient id="SVGID_5_" gradientUnits="userSpaceOnUse" x1="685.3699" y1="372.8592" x2="792.7491" y2="372.8592">
			<stop  offset="0" style="stop-color:#FFFFFF"/>
			<stop  offset="1" style="stop-color:#FFFFFF;stop-opacity:0"/>
		</linearGradient>
		<path class="st6" d="M716.1,281c-9.2,0-17.5,1.8-25,5c2.4-0.2,59.1-10.5,65.3,36.9c4.3,33-70.2,31.5-50.5,60.7
			c18.1,26.8,18.3,57.5-3.8,76.6c-3.7,3.1-7.2,4.4-7.2,4.4C840.2,437.5,830.5,281.1,716.1,281z"/>
		<linearGradient id="SVGID_6_" gradientUnits="userSpaceOnUse" x1="769.3421" y1="306.6277" x2="237.0313" y2="652.26">
			<stop  offset="0" style="stop-color:#215675"/>
			<stop  offset="1" style="stop-color:#215675;stop-opacity:0"/>
		</linearGradient>
		<path class="st7" d="M711.8,425.3c-5.1-17.8-43.2-31.2-67.8,6.4c-24.6,37.6-58,92.6-134.3,120.9c-83.3,30.8-195.6-45-208.9-54.3
			c-0.9-0.6-1.3-0.9-1.3-0.9c185.9,194.1,340.9,4.8,379.4-59.9c10.5-17.6,33.1-14.3,29.7,6c-2.9,17.3-13.6,21.3-13.6,21.3
			C708.7,461.5,715.5,438.1,711.8,425.3z"/>
		<path class="st8" d="M359.2,523.5c0,0,126.8,47.6,208.9-37.4c74.7-77.4,88.7-165.6,114.1-181.3c0,0,37-22.2,59.1,16
			c0,0-37.4-23.7-57.1,9.5c-12.7,21.4-36.7,65.8-52.2,94.7c-18.9,35.3-44.8,66.6-76.8,90.6C509.6,549.9,435.5,560.5,359.2,523.5z"/>
		<g class="st9">
			<path class="st8" d="M591.9,298.4h-33.4h-1.4h-2.1c-2.1,0-4.1,1.2-5,3.2l-84.5,152.9c-1.7,3.6,1,7.8,5,7.8h3.6
				c2.1,0,4.1-1.2,5-3.2L558.1,316c1.3-2.3,3.7-3.7,6.3-3.7h23.7c1.2,0,2.4-0.7,2.9-1.8l3.8-7.2C596,301.1,594.4,298.4,591.9,298.4z
				"/>
			<path class="st8" d="M469.3,312.2c1.2,0,2.4-0.7,2.9-1.8l3.8-7.2c1.2-2.2-0.4-4.9-2.9-4.9h-33.4h-1.4h-2.1c-2.1,0-4.1,1.2-5,3.2
				l-84.5,152.9c-1.7,3.6,1,7.8,5,7.8h3.6c2.1,0,4.1-1.2,5-3.2L439.3,316c1.3-2.3,3.7-3.7,6.3-3.7H469.3z"/>
		</g>
		<g class="st9">
			<path class="st10" d="M308,336.1c-3.4,0-6.2-2.8-6.2-6.2c0-16.8,13.6-30.4,30.4-30.4c3.4,0,6.2,2.8,6.2,6.2
				c0,3.4-2.8,6.2-6.2,6.2c-10,0-18.1,8.1-18.1,18.1C314.2,333.4,311.5,336.1,308,336.1z"/>
		</g>
		<g class="st9">
			<path class="st10" d="M249.6,444.3c-3.4,0-6.2-2.8-6.2-6.2c0-16.8,13.6-30.4,30.4-30.4c3.4,0,6.2,2.8,6.2,6.2
				c0,3.4-2.8,6.2-6.2,6.2c-10,0-18.1,8.1-18.1,18.1C255.8,441.5,253,444.3,249.6,444.3z"/>
		</g>
	</g>
</g>
</svg>
