<?xml version="1.0" encoding="utf-8"?>
<!-- Generator: Adobe Illustrator 24.3.0, SVG Export Plug-In . SVG Version: 6.00 Build 0)  -->
<svg version="1.1" id="Layer_1" xmlns="http://www.w3.org/2000/svg" xmlns:xlink="http://www.w3.org/1999/xlink" x="0px" y="0px"
	 viewBox="0 0 1000 1000" style="enable-background:new 0 0 1000 1000;" xml:space="preserve">
<style type="text/css">
	.st0{fill:#173E51;}
	.st1{fill:url(#SVGID_1_);}
	.st2{fill:url(#SVGID_2_);}
	.st3{fill:url(#SVGID_3_);}
	.st4{fill:url(#SVGID_4_);}
	.st5{fill:#14A1B5;}
	.st6{fill:url(#SVGID_5_);}
	.st7{fill:url(#SVGID_6_);}
	.st8{opacity:0.8;fill:#FFFFFF;}
	.st9{opacity:0.7;}
	.st10{fill:#FFFFFF;}
	.st11{fill:url(#SVGID_7_);}
	.st12{fill:url(#SVGID_8_);}
	.st13{fill:url(#SVGID_9_);}
	.st14{fill:url(#SVGID_10_);}
	.st15{fill:url(#SVGID_11_);}
	.st16{fill:url(#SVGID_12_);}
	.st17{fill:url(#SVGID_13_);}
	.st18{fill:url(#SVGID_14_);}
	.st19{fill:url(#SVGID_15_);}
	.st20{fill:url(#SVGID_16_);}
	.st21{fill:url(#SVGID_17_);}
	.st22{fill:url(#SVGID_18_);}
	.st23{fill:url(#SVGID_19_);}
	.st24{fill:url(#SVGID_20_);}
	.st25{fill:url(#SVGID_21_);}
	.st26{fill:url(#SVGID_22_);}
	.st27{fill:url(#SVGID_23_);}
	.st28{fill:url(#SVGID_24_);}
	.st29{fill:url(#SVGID_25_);}
	.st30{fill:url(#SVGID_26_);}
	.st31{fill:url(#SVGID_27_);}
	.st32{fill:url(#SVGID_28_);}
	.st33{fill:url(#SVGID_29_);}
	.st34{fill:url(#SVGID_30_);}
</style>
<g>
	<g>
		<linearGradient id="SVGID_1_" gradientUnits="userSpaceOnUse" x1="355.7357" y1="268.2852" x2="377.1085" y2="543.0779">
			<stop  offset="0" style="stop-color:#FDB813"/>
			<stop  offset="1" style="stop-color:#F15A24"/>
		</linearGradient>
		<path class="st1" d="M337.4,559.1h-45.2c-15.4,0-25.5-16-19-29.9l108.6-195.3c3.5-7.4,10.9-12.1,19-12.1h45.2
			c15.4,0,25.5,16,19,29.9L356.5,547C353,554.4,345.6,559.1,337.4,559.1z"/>
		<linearGradient id="SVGID_2_" gradientUnits="userSpaceOnUse" x1="501.4106" y1="256.9549" x2="522.7833" y2="531.7476">
			<stop  offset="0" style="stop-color:#FDB813"/>
			<stop  offset="1" style="stop-color:#F15A24"/>
		</linearGradient>
		<path class="st2" d="M484,559.1h-45.2c-15.4,0-25.5-16-19-29.9l108.6-195.3c3.5-7.4,10.9-12.1,19-12.1h45.2
			c15.4,0,25.5,16,19,29.9L503,547C499.6,554.4,492.1,559.1,484,559.1z"/>
		<linearGradient id="SVGID_3_" gradientUnits="userSpaceOnUse" x1="263.5074" y1="275.4585" x2="284.8802" y2="550.2512">
			<stop  offset="0" style="stop-color:#FDB813"/>
			<stop  offset="1" style="stop-color:#F15A24"/>
		</linearGradient>
		<circle class="st3" cx="271.2" cy="373.9" r="52"/>
		<linearGradient id="SVGID_4_" gradientUnits="userSpaceOnUse" x1="180.3489" y1="281.9264" x2="201.7217" y2="556.7191">
			<stop  offset="0" style="stop-color:#FDB813"/>
			<stop  offset="1" style="stop-color:#F15A24"/>
		</linearGradient>
		<circle class="st4" cx="197.9" cy="507" r="52"/>
		<path class="st5" d="M230.4,581.3c0,0,38.1,31.5,184.9,30.5c229-1.5,198.4-298.6,331.4-298.5c141.7,0.1,153.8,193.8-26.4,227.6
			c0,0,13.3-4.9,16.9-26.3c4.2-25.1-23.7-29.3-36.8-7.4C652.7,587.2,460.7,821.7,230.4,581.3z"/>
		<linearGradient id="SVGID_5_" gradientUnits="userSpaceOnUse" x1="708.587" y1="427.0028" x2="841.6236" y2="427.0028">
			<stop  offset="0" style="stop-color:#FFFFFF"/>
			<stop  offset="1" style="stop-color:#FFFFFF;stop-opacity:0"/>
		</linearGradient>
		<path class="st6" d="M746.6,313.2c-11.4,0-21.6,2.2-30.9,6.2c3-0.2,73.2-13,80.9,45.8c5.3,40.9-87,39-62.6,75.2
			c22.4,33.2,22.7,71.3-4.8,94.9c-4.5,3.9-9,5.4-9,5.4C900.4,507,888.4,313.3,746.6,313.2z"/>
		<linearGradient id="SVGID_6_" gradientUnits="userSpaceOnUse" x1="812.6237" y1="344.9457" x2="153.1212" y2="773.1644">
			<stop  offset="0" style="stop-color:#215675"/>
			<stop  offset="1" style="stop-color:#215675;stop-opacity:0"/>
		</linearGradient>
		<path class="st7" d="M741.3,492c-6.3-22-53.5-38.6-84.1,8c-30.5,46.6-71.9,114.8-166.4,149.7C387.6,687.9,248.5,594,232,582.4
			c-1.1-0.7-1.6-1.2-1.6-1.2c230.4,240.4,422.3,5.9,470-74.2c13-21.8,41-17.7,36.8,7.4c-3.6,21.5-16.9,26.3-16.9,26.3
			C737.5,536.9,745.9,507.9,741.3,492z"/>
		<path class="st8" d="M304.5,613.7c0,0,157.2,59,258.8-46.3c92.5-95.9,109.8-205.2,141.3-224.7c0,0,45.8-27.5,73.3,19.8
			c0,0-46.3-29.4-70.7,11.8c-15.7,26.5-45.4,81.5-64.6,117.3c-23.4,43.7-55.5,82.5-95.2,112.2C490.8,646.3,399,659.5,304.5,613.7z"
			/>
		<g class="st9">
			<path class="st8" d="M592.8,334.8h-41.4h-1.7H547c-2.6,0-5,1.5-6.1,3.9L436.2,528.1c-2.1,4.5,1.2,9.6,6.1,9.6h4.4
				c2.6,0,5-1.5,6.1-3.9l98-177.3c1.6-2.8,4.6-4.6,7.8-4.6H588c1.5,0,2.9-0.8,3.6-2.2l4.7-8.9C597.9,338.1,595.9,334.8,592.8,334.8z
				"/>
			<path class="st8" d="M440.9,351.9c1.5,0,2.9-0.8,3.6-2.2l4.7-8.9c1.5-2.8-0.5-6.1-3.6-6.1h-41.4h-1.7h-2.7c-2.6,0-5,1.5-6.1,3.9
				L289.1,528.1c-2.1,4.5,1.2,9.6,6.1,9.6h4.4c2.6,0,5-1.5,6.1-3.9l98-177.3c1.6-2.8,4.6-4.6,7.8-4.6H440.9z"/>
		</g>
		<g class="st9">
			<path class="st10" d="M241.1,381.5c-4.2,0-7.6-3.4-7.6-7.6c0-20.8,16.9-37.7,37.7-37.7c4.2,0,7.6,3.4,7.6,7.6
				c0,4.2-3.4,7.6-7.6,7.6c-12.4,0-22.4,10.1-22.4,22.4C248.7,378.1,245.3,381.5,241.1,381.5z"/>
		</g>
		<g class="st9">
			<path class="st10" d="M168.7,515.5c-4.2,0-7.6-3.4-7.6-7.6c0-20.8,16.9-37.7,37.7-37.7c4.2,0,7.6,3.4,7.6,7.6s-3.4,7.6-7.6,7.6
				c-12.4,0-22.4,10.1-22.4,22.4C176.3,512.1,172.9,515.5,168.7,515.5z"/>
		</g>
	</g>
</g>
</svg>
