<?xml version="1.0" encoding="utf-8"?>
<!-- Generator: Adobe Illustrator 24.3.0, SVG Export Plug-In . SVG Version: 6.00 Build 0)  -->
<svg version="1.1" id="Layer_1" xmlns="http://www.w3.org/2000/svg" xmlns:xlink="http://www.w3.org/1999/xlink" x="0px" y="0px"
	 viewBox="0 0 1000 1000" style="enable-background:new 0 0 1000 1000;" xml:space="preserve">
<style type="text/css">
	.st0{fill:#022A4F;}
	.st1{fill:url(#SVGID_1_);}
	.st2{fill:url(#SVGID_2_);}
	.st3{fill:none;}
	.st4{fill:url(#SVGID_3_);}
	.st5{fill:url(#SVGID_4_);}
	.st6{fill:url(#SVGID_5_);}
	.st7{fill:url(#SVGID_6_);}
	.st8{fill:#FFFFFF;}
	.st9{fill:url(#SVGID_7_);}
	.st10{fill:url(#SVGID_8_);}
	.st11{fill:url(#SVGID_9_);}
	.st12{fill:url(#SVGID_10_);}
	.st13{fill:url(#SVGID_11_);}
	.st14{fill:url(#SVGID_12_);}
	.st15{fill:url(#SVGID_13_);}
	.st16{fill:url(#SVGID_14_);}
	.st17{fill:url(#SVGID_15_);}
	.st18{fill:url(#SVGID_16_);}
	.st19{fill:url(#SVGID_17_);}
	.st20{fill:url(#SVGID_18_);}
	.st21{fill:url(#SVGID_19_);}
	.st22{fill:url(#SVGID_20_);}
	.st23{fill:url(#SVGID_21_);}
	.st24{fill:url(#SVGID_22_);}
	.st25{fill:url(#SVGID_23_);}
	.st26{fill:url(#SVGID_24_);}
	.st27{fill:url(#SVGID_25_);}
	.st28{fill:url(#SVGID_26_);}
	.st29{fill:url(#SVGID_27_);}
	.st30{fill:url(#SVGID_28_);}
	.st31{fill:url(#SVGID_29_);}
	.st32{fill:url(#SVGID_30_);}
	.st33{fill:url(#SVGID_31_);}
	.st34{fill:url(#SVGID_32_);}
	.st35{fill:url(#SVGID_33_);}
	.st36{fill:url(#SVGID_34_);}
	.st37{fill:url(#SVGID_35_);}
	.st38{fill:url(#SVGID_36_);}
	.st39{fill:url(#SVGID_37_);}
	.st40{fill:url(#SVGID_38_);}
	.st41{fill:url(#SVGID_39_);}
	.st42{fill:url(#SVGID_40_);}
	.st43{fill:url(#SVGID_41_);}
	.st44{fill:url(#SVGID_42_);}
	.st45{fill:url(#SVGID_43_);}
	.st46{fill:url(#SVGID_44_);}
	.st47{fill:url(#SVGID_45_);}
</style>
<g>
	<linearGradient id="SVGID_1_" gradientUnits="userSpaceOnUse" x1="347.3444" y1="258.5596" x2="404.4603" y2="326.0602">
		<stop  offset="0" style="stop-color:#FDB813"/>
		<stop  offset="1" style="stop-color:#F15A24"/>
	</linearGradient>
	<ellipse class="st1" cx="375.1" cy="291.3" rx="47.5" ry="46.6"/>
	<linearGradient id="SVGID_2_" gradientUnits="userSpaceOnUse" x1="353.7344" y1="375.301" x2="399.1675" y2="444.0996">
		<stop  offset="0" style="stop-color:#FDB813"/>
		<stop  offset="1" style="stop-color:#F15A24"/>
	</linearGradient>
	<path class="st2" d="M327.6,407.6c0-27.6,22.3-46.6,47.5-46.6c24.7,0,47.5,19,47.5,46.6c0,27.6-22.8,46.6-47.5,46.6
		C349.9,454.2,327.6,435.2,327.6,407.6z"/>
	<g>
		<g>
			<path class="st3" d="M521.5,644.2c-14.2-11.8-28.1-26.1-41.4-43.2l-14.9,35.3c12.8,5.7,24.2,12.8,32.5,20.5
				c1.7,1.6,6.7,5.4,14.1,10l32-6.1c-4.4-2.9-8.7-6-13.1-9.3h-12.2L521.5,644.2z"/>
			<path class="st3" d="M577.5,695.4c16.8,4.1,34.7,5.6,51.9,2.1c4.2-0.9,8.3-2,12.3-3.4c-14.6-1.1-29.8-3.7-45.1-8.4L577.5,695.4z"
				/>
			<path class="st3" d="M357.2,524.1c-11,0-20.3,1.4-26.9,2.8c-43.5,9.2-77.4,39.3-84.5,75c-7.6,38.6,3.3,73.3,29.1,92.8
				c19.5,14.8,46.2,20.6,77.6,17.8c-7.3-12.9-9.4-28.3-5.9-44.8c2.7-12.4,9.3-22.9,18.9-30.6l43.1-102.2
				C390,526.7,372,524.1,357.2,524.1z"/>
			<linearGradient id="SVGID_3_" gradientUnits="userSpaceOnUse" x1="589.4767" y1="181.3179" x2="509.3881" y2="429.2112">
				<stop  offset="0" style="stop-color:#FDB813"/>
				<stop  offset="1" style="stop-color:#F15A24"/>
			</linearGradient>
			<path class="st4" d="M513.7,521.4l109.3-259c3.5-8.4-2.6-17.7-11.7-17.7h-63.6c-10,0-19.1,6-22.9,15.2l-87.5,207.3
				c-0.9,2.2,0.1,4.7,2.2,5.7c24.6,11.4,47.2,28.2,67,49.7C508.7,525,512.5,524.3,513.7,521.4z"/>
			<linearGradient id="SVGID_4_" gradientUnits="userSpaceOnUse" x1="566.8364" y1="173.4653" x2="485.9741" y2="423.7531">
				<stop  offset="0" style="stop-color:#FDB813"/>
				<stop  offset="1" style="stop-color:#F15A24"/>
			</linearGradient>
			<path class="st5" d="M470.4,587.8c-19.4-27.6-41-43.7-61.6-52.8l-43.1,102.2c5.5-4.4,11.9-7.8,19.2-10.1
				c23.8-7.5,54.9-2,80.4,9.3l14.9-35.3C476.9,596.7,473.6,592.4,470.4,587.8z"/>
			<linearGradient id="SVGID_5_" gradientUnits="userSpaceOnUse" x1="729.3965" y1="224.5439" x2="648.3719" y2="475.3346">
				<stop  offset="0" style="stop-color:#FDB813"/>
				<stop  offset="1" style="stop-color:#F15A24"/>
			</linearGradient>
			<path class="st6" d="M632.4,616.8l150.7-357.1c3-7.1-2.2-15-9.9-15h-75.4c-4.6,0-8.8,2.8-10.6,7L552.2,571.5
				c-1.3,3-0.6,6.5,1.7,8.8c23.3,23.2,47.1,35.4,69,41.1C626.7,622.3,630.9,620.3,632.4,616.8z"/>
			<linearGradient id="SVGID_6_" gradientUnits="userSpaceOnUse" x1="668.5809" y1="205.7607" x2="587.7187" y2="456.0486">
				<stop  offset="0" style="stop-color:#FDB813"/>
				<stop  offset="1" style="stop-color:#F15A24"/>
			</linearGradient>
			<path class="st7" d="M518.5,651.5h12.2c-3.1-2.3-6.1-4.7-9.2-7.3L518.5,651.5z"/>
			<path class="st8" d="M384.8,627c-7.3,2.3-13.7,5.7-19.2,10.1l-6.1,14.4h99.3l6.4-15.2C439.8,625,408.6,619.6,384.8,627z"/>
		</g>
	</g>
	<linearGradient id="SVGID_7_" gradientUnits="userSpaceOnUse" x1="710.2933" y1="716.3892" x2="157.3076" y2="576.1956">
		<stop  offset="0" style="stop-color:#00AEEF"/>
		<stop  offset="1" style="stop-color:#0068B3"/>
	</linearGradient>
	<path class="st9" d="M743.5,648.1c0,0-133.7,75.3-237.6-72.7c-93.7-133.5-266.1-77.8-286.9,27.3C197,714.3,295.7,811.7,481.3,717
		c0,0-105.2,20.4-93.5-34.5c6.5-30.5,70.9-14,93.5,7.2C502.1,709.1,667.9,817.2,743.5,648.1z"/>
	<linearGradient id="SVGID_8_" gradientUnits="userSpaceOnUse" x1="507.4555" y1="793.1349" x2="512.6479" y2="564.6713">
		<stop  offset="0" style="stop-color:#71F4F5"/>
		<stop  offset="1" style="stop-color:#00AEEF"/>
	</linearGradient>
	<path class="st10" d="M481.3,717c0,0-103.7,12.4-86.7-34.4c8.5-23.4,71.2,5.1,95.3,24.5c29.2,23.4,177.9,110.2,253.6-58.8
		c0,0-109.1,106.3-252.1-22c-99.8-89.5-223.7-25.3-213.4,58.7c5.5,44.7,48.7,74.3,93.4,68.6C403.6,749.4,440.3,737.9,481.3,717z"/>
	<linearGradient id="SVGID_9_" gradientUnits="userSpaceOnUse" x1="659.0599" y1="716.9156" x2="260.9505" y2="646.3367">
		<stop  offset="0" style="stop-color:#00ACED;stop-opacity:0"/>
		<stop  offset="1" style="stop-color:#0068B3"/>
	</linearGradient>
	<path class="st11" d="M379.8,724.7c0,0-35.5-33.1-10.4-65.6c24.1-31.2,67-20.5,103.3,3.4c36.3,23.9,55.7,52.8,142.4,55.7
		c0,0-63.2-3.6-118-58.4c-50.5-50.5-148.9-69.1-177-8.4C291.2,713.7,379.8,724.7,379.8,724.7z"/>
	<linearGradient id="SVGID_10_" gradientUnits="userSpaceOnUse" x1="636.6573" y1="322.1861" x2="689.5916" y2="357.7513">
		<stop  offset="0" style="stop-color:#FFFFFF"/>
		<stop  offset="1" style="stop-color:#FFFFFF;stop-opacity:0"/>
	</linearGradient>
	<path class="st12" d="M619.1,457.8l77-189.5c1.9-4.8,6.6-7.9,11.7-7.9h56.5"/>
	<linearGradient id="SVGID_11_" gradientUnits="userSpaceOnUse" x1="478.6818" y1="322.1861" x2="531.616" y2="357.7513">
		<stop  offset="0" style="stop-color:#FFFFFF"/>
		<stop  offset="1" style="stop-color:#FFFFFF;stop-opacity:0"/>
	</linearGradient>
	<path class="st13" d="M461.1,457.8l77-189.5c1.9-4.8,6.6-7.9,11.7-7.9h56.5"/>
	<linearGradient id="SVGID_12_" gradientUnits="userSpaceOnUse" x1="330.8104" y1="255.5286" x2="377.9549" y2="294.4021">
		<stop  offset="0" style="stop-color:#FFFFFF"/>
		<stop  offset="1" style="stop-color:#FFFFFF;stop-opacity:0"/>
	</linearGradient>
	<circle class="st14" cx="374.2" cy="291.3" r="34.5"/>
	<linearGradient id="SVGID_13_" gradientUnits="userSpaceOnUse" x1="322.4933" y1="353.9781" x2="378.3223" y2="411.8749">
		<stop  offset="0" style="stop-color:#FFFFFF"/>
		<stop  offset="1" style="stop-color:#FFFFFF;stop-opacity:0"/>
	</linearGradient>
	<circle class="st15" cx="374.2" cy="407.6" r="34.5"/>
	<linearGradient id="SVGID_14_" gradientUnits="userSpaceOnUse" x1="215.8376" y1="487.2794" x2="310.9537" y2="586.5311">
		<stop  offset="0" style="stop-color:#FFFFFF"/>
		<stop  offset="1" style="stop-color:#FFFFFF;stop-opacity:0"/>
	</linearGradient>
	<path class="st16" d="M416.8,534.9c0,0-79.8-41.7-139.4,16.9c-59.7,58.6-26.8,133.8-26.8,133.8S275.4,586.5,416.8,534.9z"/>
	<linearGradient id="SVGID_15_" gradientUnits="userSpaceOnUse" x1="323.6159" y1="666.8972" x2="394.3327" y2="685.5069">
		<stop  offset="0" style="stop-color:#FFFFFF"/>
		<stop  offset="1" style="stop-color:#FFFFFF;stop-opacity:0"/>
	</linearGradient>
	<path class="st17" d="M453.8,673.6c0,0-68.9-34.4-80.2,1.7c-14,44.9,45.1,45.5,45.1,45.5s-35.1-10.5-32.7-32.1
		C388.5,666.9,404.6,658.7,453.8,673.6z"/>
</g>
</svg>
