<?xml version="1.0" encoding="utf-8"?>
<!-- Generator: Adobe Illustrator 24.3.0, SVG Export Plug-In . SVG Version: 6.00 Build 0)  -->
<svg version="1.1" id="Layer_1" xmlns="http://www.w3.org/2000/svg" xmlns:xlink="http://www.w3.org/1999/xlink" x="0px" y="0px"
	 viewBox="0 0 1000 1000" style="enable-background:new 0 0 1000 1000;" xml:space="preserve">
<style type="text/css">
	.st0{fill:#022A4F;}
	.st1{fill:url(#SVGID_1_);}
	.st2{fill:url(#SVGID_2_);}
	.st3{fill:none;}
	.st4{fill:url(#SVGID_3_);}
	.st5{fill:url(#SVGID_4_);}
	.st6{fill:url(#SVGID_5_);}
	.st7{fill:url(#SVGID_6_);}
	.st8{fill:#FFFFFF;}
	.st9{fill:url(#SVGID_7_);}
	.st10{fill:url(#SVGID_8_);}
	.st11{fill:url(#SVGID_9_);}
	.st12{fill:url(#SVGID_10_);}
	.st13{fill:url(#SVGID_11_);}
	.st14{fill:url(#SVGID_12_);}
	.st15{fill:url(#SVGID_13_);}
	.st16{fill:url(#SVGID_14_);}
	.st17{fill:url(#SVGID_15_);}
	.st18{fill:url(#SVGID_16_);}
	.st19{fill:url(#SVGID_17_);}
	.st20{fill:url(#SVGID_18_);}
	.st21{fill:url(#SVGID_19_);}
	.st22{fill:url(#SVGID_20_);}
	.st23{fill:url(#SVGID_21_);}
	.st24{fill:url(#SVGID_22_);}
	.st25{fill:url(#SVGID_23_);}
	.st26{fill:url(#SVGID_24_);}
	.st27{fill:url(#SVGID_25_);}
	.st28{fill:url(#SVGID_26_);}
	.st29{fill:url(#SVGID_27_);}
	.st30{fill:url(#SVGID_28_);}
	.st31{fill:url(#SVGID_29_);}
	.st32{fill:url(#SVGID_30_);}
	.st33{fill:url(#SVGID_31_);}
	.st34{fill:url(#SVGID_32_);}
	.st35{fill:url(#SVGID_33_);}
	.st36{fill:url(#SVGID_34_);}
	.st37{fill:url(#SVGID_35_);}
	.st38{fill:url(#SVGID_36_);}
	.st39{fill:url(#SVGID_37_);}
	.st40{fill:url(#SVGID_38_);}
	.st41{fill:url(#SVGID_39_);}
	.st42{fill:url(#SVGID_40_);}
	.st43{fill:url(#SVGID_41_);}
	.st44{fill:url(#SVGID_42_);}
	.st45{fill:url(#SVGID_43_);}
	.st46{fill:url(#SVGID_44_);}
	.st47{fill:url(#SVGID_45_);}
</style>
<rect class="st0" width="1000" height="1000"/>
<g>
	<linearGradient id="SVGID_1_" gradientUnits="userSpaceOnUse" x1="414.4066" y1="275.499" x2="454.2303" y2="322.5634">
		<stop  offset="0" style="stop-color:#FDB813"/>
		<stop  offset="1" style="stop-color:#F15A24"/>
	</linearGradient>
	<ellipse class="st1" cx="433.8" cy="298.3" rx="33.1" ry="32.5"/>
	<linearGradient id="SVGID_2_" gradientUnits="userSpaceOnUse" x1="418.862" y1="356.8962" x2="450.54" y2="404.8658">
		<stop  offset="0" style="stop-color:#FDB813"/>
		<stop  offset="1" style="stop-color:#F15A24"/>
	</linearGradient>
	<path class="st2" d="M400.6,379.4c0-19.2,15.6-32.5,33.1-32.5c17.2,0,33.1,13.3,33.1,32.5c0,19.2-15.9,32.5-33.1,32.5
		C416.2,411.9,400.6,398.6,400.6,379.4z"/>
	<g>
		<g>
			<path class="st3" d="M535.9,544.4c-9.9-8.3-19.6-18.2-28.8-30.1l-10.4,24.6c8.9,4,16.9,8.9,22.6,14.3c1.2,1.1,4.7,3.8,9.8,7
				l22.3-4.3c-3.1-2-6.1-4.2-9.1-6.5h-8.5L535.9,544.4z"/>
			<path class="st3" d="M574.9,580.1c11.7,2.8,24.2,3.9,36.2,1.5c3-0.6,5.8-1.4,8.6-2.4c-10.2-0.7-20.8-2.6-31.5-5.9L574.9,580.1z"
				/>
			<path class="st3" d="M421.3,460.6c-7.7,0-14.1,1-18.8,1.9c-30.3,6.4-54,27.4-58.9,52.3c-5.3,26.9,2.3,51.1,20.3,64.7
				c13.6,10.3,32.2,14.4,54.1,12.4c-5.1-9-6.5-19.7-4.1-31.2c1.9-8.7,6.5-16,13.2-21.3l30.1-71.2
				C444.2,462.4,431.6,460.6,421.3,460.6z"/>
			<linearGradient id="SVGID_3_" gradientUnits="userSpaceOnUse" x1="583.2321" y1="221.6426" x2="527.3907" y2="394.4849">
				<stop  offset="0" style="stop-color:#FDB813"/>
				<stop  offset="1" style="stop-color:#F15A24"/>
			</linearGradient>
			<path class="st4" d="M530.4,458.7l76.2-180.6c2.5-5.9-1.8-12.3-8.2-12.3h-44.3c-7,0-13.3,4.2-16,10.6l-61,144.6
				c-0.6,1.5,0.1,3.2,1.5,3.9c17.1,8,32.9,19.6,46.7,34.7C526.9,461.3,529.6,460.8,530.4,458.7z"/>
			<linearGradient id="SVGID_4_" gradientUnits="userSpaceOnUse" x1="567.4462" y1="216.1674" x2="511.0654" y2="390.6793">
				<stop  offset="0" style="stop-color:#FDB813"/>
				<stop  offset="1" style="stop-color:#F15A24"/>
			</linearGradient>
			<path class="st5" d="M500.2,505c-13.5-19.2-28.6-30.5-43-36.8l-30.1,71.2c3.8-3,8.3-5.4,13.4-7c16.6-5.2,38.3-1.4,56.1,6.5
				l10.4-24.6C504.7,511.3,502.4,508.2,500.2,505z"/>
			<linearGradient id="SVGID_5_" gradientUnits="userSpaceOnUse" x1="680.7904" y1="251.7817" x2="624.2964" y2="426.6442">
				<stop  offset="0" style="stop-color:#FDB813"/>
				<stop  offset="1" style="stop-color:#F15A24"/>
			</linearGradient>
			<path class="st6" d="M613.2,525.3l105.1-249c2.1-5-1.5-10.4-6.9-10.4h-52.6c-3.2,0-6.2,1.9-7.4,4.9l-94.1,222.9
				c-0.9,2.1-0.4,4.5,1.2,6.1c16.3,16.2,32.8,24.7,48.1,28.7C609.2,529.1,612.1,527.7,613.2,525.3z"/>
			<linearGradient id="SVGID_6_" gradientUnits="userSpaceOnUse" x1="638.3871" y1="238.6852" x2="582.0063" y2="413.1971">
				<stop  offset="0" style="stop-color:#FDB813"/>
				<stop  offset="1" style="stop-color:#F15A24"/>
			</linearGradient>
			<path class="st7" d="M533.7,549.5h8.5c-2.1-1.6-4.3-3.3-6.4-5.1L533.7,549.5z"/>
			<path class="st8" d="M440.5,532.4c-5.1,1.6-9.6,4-13.4,7l-4.2,10h69.2l4.5-10.6C478.9,531,457.1,527.2,440.5,532.4z"/>
		</g>
	</g>
	<g>
		<path class="st8" d="M277.9,727.4l-10-35.3l-10.2,35.4c-1.1,4-4.8,6.7-8.9,6.7h0c-4,0-7.6-2.6-8.8-6.4l-14.6-44.3
			c-1.4-4.1,1.7-8.4,6-8.4h0.7c2.9,0,5.4,1.9,6.1,4.7l11.1,39.9l10.6-38.2c1-3.7,4.4-6.3,8.3-6.3l0,0c3.9,0,7.2,2.6,8.3,6.3
			l10.7,38.2l11-39.9c0.8-2.8,3.3-4.7,6.1-4.7h0c4.3,0,7.4,4.2,6,8.4l-14.7,44.3c-1.3,3.8-4.8,6.4-8.8,6.4h0
			C282.7,734.1,279.1,731.4,277.9,727.4z"/>
		<path class="st8" d="M357.6,686.2V699h23c3.1,0,5.5,2.5,5.5,5.5v0c0,3.1-2.5,5.5-5.5,5.5h-23v13.1h27c3.1,0,5.5,2.5,5.5,5.5l0,0
			c0,3.1-2.5,5.5-5.5,5.5h-33.3c-3.9,0-7.1-3.2-7.1-7.1v-44.9c0-3.9,3.2-7.1,7.1-7.1h32.3c3.1,0,5.5,2.5,5.5,5.5l0,0
			c0,3.1-2.5,5.5-5.5,5.5H357.6z"/>
		<path class="st8" d="M453.1,675.1c13,0,21.1,5.7,21.1,14.8c0,6.4-3.9,11.4-10.2,13c7.6,1.4,12.3,7.2,12.3,14.9
			c0,10.1-8.5,16.4-22.3,16.4h-19.1c-4.9,0-8.9-4-8.9-8.9v-41.1c0-4.9,4-8.9,8.9-8.9H453.1z M439.2,698.9h13.2c5,0,8.1-2.4,8.1-6.6
			c0-4-3.1-6.3-8.1-6.3h-13.2V698.9z M439.2,723.3h13.2c6.3,0,10.1-2.6,10.1-7.2c0-4.3-3.8-6.9-10.1-6.9h-13.2V723.3z"/>
		<path class="st8" d="M536.7,686.4v41.1c0,3.7-3,6.7-6.7,6.7h0c-3.7,0-6.7-3-6.7-6.7v-41.1h-12.3c-3.1,0-5.7-2.5-5.7-5.7l0,0
			c0-3.1,2.5-5.7,5.7-5.7h38c3.1,0,5.7,2.5,5.7,5.7l0,0c0,3.1-2.5,5.7-5.7,5.7H536.7z"/>
		<path class="st8" d="M587.3,727.5v-45.7c0-3.7,3-6.7,6.7-6.7l0,0c3.7,0,6.7,3,6.7,6.7v45.7c0,3.7-3,6.7-6.7,6.7l0,0
			C590.2,734.1,587.3,731.2,587.3,727.5z"/>
		<path class="st8" d="M664,675.1c18.3,0,31,12.1,31,29.5c0,17.4-12.9,29.5-31.5,29.5h-16.6c-4.4,0-8-3.6-8-8v-43.1c0-4.4,3.6-8,8-8
			H664z M652.3,722.9h12.1c9.9,0,17.1-7.4,17.1-18.2c0-10.9-7.6-18.4-17.7-18.4h-11.5V722.9z"/>
		<path class="st8" d="M742.4,686.2V699h23c3.1,0,5.5,2.5,5.5,5.5v0c0,3.1-2.5,5.5-5.5,5.5h-23v13.1h27c3.1,0,5.5,2.5,5.5,5.5l0,0
			c0,3.1-2.5,5.5-5.5,5.5h-32.8c-4.2,0-7.6-3.4-7.6-7.6v-43.9c0-4.2,3.4-7.6,7.6-7.6h31.9c3.1,0,5.5,2.5,5.5,5.5l0,0
			c0,3.1-2.5,5.5-5.5,5.5H742.4z"/>
	</g>
	<linearGradient id="SVGID_7_" gradientUnits="userSpaceOnUse" x1="667.4708" y1="594.7183" x2="281.9044" y2="496.969">
		<stop  offset="0" style="stop-color:#00AEEF"/>
		<stop  offset="1" style="stop-color:#0068B3"/>
	</linearGradient>
	<path class="st9" d="M690.6,547.1c0,0-93.2,52.5-165.6-50.7c-65.3-93.1-185.5-54.2-200,19c-15.4,77.8,53.4,145.8,182.8,79.7
		c0,0-73.4,14.2-65.2-24.1c4.5-21.2,49.4-9.8,65.2,5C522.3,589.6,637.9,665,690.6,547.1z"/>
	<linearGradient id="SVGID_8_" gradientUnits="userSpaceOnUse" x1="526.0432" y1="648.2288" x2="529.6636" y2="488.9337">
		<stop  offset="0" style="stop-color:#71F4F5"/>
		<stop  offset="1" style="stop-color:#00AEEF"/>
	</linearGradient>
	<path class="st10" d="M507.8,595.1c0,0-72.3,8.7-60.4-24c5.9-16.3,49.6,3.5,66.5,17.1c20.3,16.3,124.1,76.9,176.8-41
		c0,0-76,74.1-175.8-15.3c-69.6-62.4-156-17.6-148.8,41c3.8,31.2,34,51.8,65.1,47.8C453.6,617.7,479.2,609.7,507.8,595.1z"/>
	<linearGradient id="SVGID_9_" gradientUnits="userSpaceOnUse" x1="631.7486" y1="595.0853" x2="354.1689" y2="545.8745">
		<stop  offset="0" style="stop-color:#00ACED;stop-opacity:0"/>
		<stop  offset="1" style="stop-color:#0068B3"/>
	</linearGradient>
	<path class="st11" d="M437,600.5c0,0-24.7-23.1-7.2-45.7c16.8-21.8,46.7-14.3,72,2.4c25.3,16.6,38.8,36.8,99.3,38.9
		c0,0-44.1-2.5-82.3-40.7c-35.2-35.2-103.8-48.2-123.4-5.9C375.3,592.8,437,600.5,437,600.5z"/>
	<linearGradient id="SVGID_10_" gradientUnits="userSpaceOnUse" x1="616.1285" y1="319.8622" x2="653.0366" y2="344.6598">
		<stop  offset="0" style="stop-color:#FFFFFF"/>
		<stop  offset="1" style="stop-color:#FFFFFF;stop-opacity:0"/>
	</linearGradient>
	<path class="st12" d="M603.9,414.4l53.7-132.1c1.3-3.3,4.6-5.5,8.2-5.5h39.4"/>
	<linearGradient id="SVGID_11_" gradientUnits="userSpaceOnUse" x1="505.9809" y1="319.8622" x2="542.889" y2="344.6598">
		<stop  offset="0" style="stop-color:#FFFFFF"/>
		<stop  offset="1" style="stop-color:#FFFFFF;stop-opacity:0"/>
	</linearGradient>
	<path class="st13" d="M493.7,414.4l53.7-132.1c1.3-3.3,4.6-5.5,8.2-5.5h39.4"/>
	<linearGradient id="SVGID_12_" gradientUnits="userSpaceOnUse" x1="402.8783" y1="273.3856" x2="435.7496" y2="300.49">
		<stop  offset="0" style="stop-color:#FFFFFF"/>
		<stop  offset="1" style="stop-color:#FFFFFF;stop-opacity:0"/>
	</linearGradient>
	<circle class="st14" cx="433.1" cy="298.3" r="24.1"/>
	<linearGradient id="SVGID_13_" gradientUnits="userSpaceOnUse" x1="397.0792" y1="342.029" x2="436.0057" y2="382.3972">
		<stop  offset="0" style="stop-color:#FFFFFF"/>
		<stop  offset="1" style="stop-color:#FFFFFF;stop-opacity:0"/>
	</linearGradient>
	<circle class="st15" cx="433.1" cy="379.4" r="24.1"/>
	<linearGradient id="SVGID_14_" gradientUnits="userSpaceOnUse" x1="322.7141" y1="434.9726" x2="389.0334" y2="504.1753">
		<stop  offset="0" style="stop-color:#FFFFFF"/>
		<stop  offset="1" style="stop-color:#FFFFFF;stop-opacity:0"/>
	</linearGradient>
	<path class="st16" d="M462.9,468.2c0,0-55.6-29.1-97.2,11.8S347,573.3,347,573.3S364.3,504.2,462.9,468.2z"/>
	<linearGradient id="SVGID_15_" gradientUnits="userSpaceOnUse" x1="397.862" y1="560.2102" x2="447.1689" y2="573.1857">
		<stop  offset="0" style="stop-color:#FFFFFF"/>
		<stop  offset="1" style="stop-color:#FFFFFF;stop-opacity:0"/>
	</linearGradient>
	<path class="st17" d="M488.6,564.9c0,0-48.1-24-55.9,1.2c-9.8,31.3,31.4,31.7,31.4,31.7s-24.5-7.3-22.8-22.4
		C443.1,560.2,454.3,554.5,488.6,564.9z"/>
</g>
</svg>
