<?xml version="1.0" encoding="utf-8"?>
<!-- Generator: Adobe Illustrator 24.3.0, SVG Export Plug-In . SVG Version: 6.00 Build 0)  -->
<svg version="1.1" id="Layer_1" xmlns="http://www.w3.org/2000/svg" xmlns:xlink="http://www.w3.org/1999/xlink" x="0px" y="0px"
	 viewBox="0 0 1000 1000" style="enable-background:new 0 0 1000 1000;" xml:space="preserve">
<style type="text/css">
	.st0{fill:#022A4F;}
	.st1{fill:url(#SVGID_1_);}
	.st2{fill:url(#SVGID_2_);}
	.st3{fill:url(#SVGID_3_);}
	.st4{fill:url(#SVGID_4_);}
	.st5{fill:url(#SVGID_5_);}
	.st6{fill:url(#SVGID_6_);}
	.st7{fill:url(#SVGID_7_);}
	.st8{fill:url(#SVGID_8_);}
	.st9{fill:url(#SVGID_9_);}
	.st10{fill:url(#SVGID_10_);}
	.st11{fill:url(#SVGID_11_);}
	.st12{fill:url(#SVGID_12_);}
	.st13{fill:#FFFFFF;}
	.st14{fill:url(#SVGID_13_);}
	.st15{fill:url(#SVGID_14_);}
	.st16{fill:url(#SVGID_15_);}
	.st17{fill:url(#SVGID_16_);}
	.st18{fill:url(#SVGID_17_);}
	.st19{fill:url(#SVGID_18_);}
	.st20{fill:url(#SVGID_19_);}
	.st21{fill:url(#SVGID_20_);}
	.st22{fill:url(#SVGID_21_);}
	.st23{fill:url(#SVGID_22_);}
	.st24{fill:url(#SVGID_23_);}
	.st25{fill:url(#SVGID_24_);}
	.st26{fill:url(#SVGID_25_);}
	.st27{fill:url(#SVGID_26_);}
	.st28{fill:url(#SVGID_27_);}
	.st29{fill:url(#SVGID_28_);}
	.st30{fill:url(#SVGID_29_);}
	.st31{fill:url(#SVGID_30_);}
	.st32{fill:url(#SVGID_31_);}
	.st33{fill:url(#SVGID_32_);}
	.st34{fill:url(#SVGID_33_);}
	.st35{fill:url(#SVGID_34_);}
	.st36{fill:url(#SVGID_35_);}
	.st37{fill:url(#SVGID_36_);}
	.st38{fill:url(#SVGID_37_);}
	.st39{fill:url(#SVGID_38_);}
	.st40{fill:url(#SVGID_39_);}
	.st41{fill:url(#SVGID_40_);}
	.st42{fill:url(#SVGID_41_);}
	.st43{fill:url(#SVGID_42_);}
	.st44{fill:url(#SVGID_43_);}
	.st45{fill:url(#SVGID_44_);}
	.st46{fill:url(#SVGID_45_);}
	.st47{fill:url(#SVGID_46_);}
	.st48{fill:url(#SVGID_47_);}
	.st49{fill:url(#SVGID_48_);}
	.st50{fill:url(#SVGID_49_);}
	.st51{fill:url(#SVGID_50_);}
	.st52{fill:url(#SVGID_51_);}
	.st53{fill:url(#SVGID_52_);}
	.st54{fill:url(#SVGID_53_);}
	.st55{fill:url(#SVGID_54_);}
	.st56{fill:url(#SVGID_55_);}
	.st57{fill:url(#SVGID_56_);}
	.st58{fill:url(#SVGID_57_);}
	.st59{fill:url(#SVGID_58_);}
	.st60{fill:url(#SVGID_59_);}
	.st61{fill:url(#SVGID_60_);}
	.st62{fill:url(#SVGID_61_);}
	.st63{fill:url(#SVGID_62_);}
	.st64{fill:url(#SVGID_63_);}
	.st65{fill:url(#SVGID_64_);}
	.st66{fill:url(#SVGID_65_);}
	.st67{fill:url(#SVGID_66_);}
	.st68{fill:url(#SVGID_67_);}
	.st69{fill:url(#SVGID_68_);}
	.st70{fill:url(#SVGID_69_);}
	.st71{fill:url(#SVGID_70_);}
	.st72{fill:url(#SVGID_71_);}
	.st73{fill:url(#SVGID_72_);}
</style>
<rect class="st0" width="1000" height="1000"/>
<g>
	<g>
		
			<linearGradient id="SVGID_1_" gradientUnits="userSpaceOnUse" x1="548.9827" y1="740.3456" x2="583.0553" y2="740.3456" gradientTransform="matrix(0.9821 -0.1885 0.1885 0.9821 -494.6982 -101.2584)">
			<stop  offset="0" style="stop-color:#FDB813"/>
			<stop  offset="1" style="stop-color:#F15A24"/>
		</linearGradient>
		<circle class="st1" cx="200.7" cy="519.1" r="17"/>
		
			<linearGradient id="SVGID_2_" gradientUnits="userSpaceOnUse" x1="570.8916" y1="700.5249" x2="604.9643" y2="700.5249" gradientTransform="matrix(0.9821 -0.1885 0.1885 0.9821 -494.6982 -101.2584)">
			<stop  offset="0" style="stop-color:#FDB813"/>
			<stop  offset="1" style="stop-color:#F15A24"/>
		</linearGradient>
		<circle class="st2" cx="214.7" cy="475.9" r="17"/>
		
			<linearGradient id="SVGID_3_" gradientUnits="userSpaceOnUse" x1="313.8728" y1="628.2501" x2="279.8406" y2="780.8947" gradientTransform="matrix(1.0044 -0.2123 -0.1509 1.0275 61.1385 -171.0186)">
			<stop  offset="0" style="stop-color:#FDB813"/>
			<stop  offset="1" style="stop-color:#F15A24"/>
		</linearGradient>
		<path class="st3" d="M271.4,440.3c-11.4,7.4-20.3,19.4-23.8,31.7l-20.7,71.8c-1.9,6.7-5.5,13.4-10.7,18.9
			c-3.6,3.9-8.4,7.7-14.1,9.7c0,0,45.5,4.1,57.2-36.8l24.3-84.1c4-14,11.3-21.7,11.3-21.7C285.1,432.6,277.5,436.3,271.4,440.3z"/>
		
			<linearGradient id="SVGID_4_" gradientUnits="userSpaceOnUse" x1="320.3748" y1="613.6115" x2="296.6023" y2="736.7281" gradientTransform="matrix(1.0044 -0.2123 -0.1509 1.0275 61.1385 -171.0186)">
			<stop  offset="0" style="stop-color:#FFFFFF"/>
			<stop  offset="1" style="stop-color:#FFFFFF;stop-opacity:0"/>
		</linearGradient>
		<path class="st4" d="M294.7,429.8c0,0-25.9,8-35.5,43.1l-14.8,54.7l-13.1,0.8l16.4-56.7c5.7-19.6,22.1-33.8,41.8-40.2L294.7,429.8
			z"/>
		
			<linearGradient id="SVGID_5_" gradientUnits="userSpaceOnUse" x1="356.1591" y1="656.6786" x2="320.7275" y2="815.5999" gradientTransform="matrix(1.0045 -0.2119 -0.1514 1.0275 62.7063 -170.9737)">
			<stop  offset="0" style="stop-color:#00AEEF"/>
			<stop  offset="1" style="stop-color:#0068B3"/>
		</linearGradient>
		<path class="st5" d="M289.1,464.6L289.1,464.6l-23,79.3c-2.3,7.6-6.6,15.2-12.6,21.5c-4.2,4.4-9.7,8.6-16.3,10.8
			c0,0,51.4,6,65.6-40.7l0,0l0.1,0l22.9-79.2c2.3-7.6,6.6-15.2,12.6-21.5c4.2-4.4,9.7-8.6,16.3-10.8
			C354.8,423.9,303.4,417.9,289.1,464.6z"/>
		
			<linearGradient id="SVGID_6_" gradientUnits="userSpaceOnUse" x1="371.3156" y1="611.3788" x2="343.304" y2="756.4498" gradientTransform="matrix(1.0045 -0.2119 -0.1514 1.0275 62.7063 -170.9737)">
			<stop  offset="0" style="stop-color:#FFFFFF"/>
			<stop  offset="1" style="stop-color:#FFFFFF;stop-opacity:0"/>
		</linearGradient>
		<path class="st6" d="M354.8,423.9c0,0-36.1-2.1-51.1,45.3c-15,47.3-19.4,70.5-19.4,70.5l-15.1-5.7l20.5-71.4
			c6.7-22,28.3-39.8,61.6-38.9L354.8,423.9z"/>
		
			<linearGradient id="SVGID_7_" gradientUnits="userSpaceOnUse" x1="406.4819" y1="693.5707" x2="371.699" y2="674.3024" gradientTransform="matrix(1.0045 -0.2119 -0.1514 1.0275 62.7063 -170.9737)">
			<stop  offset="0" style="stop-color:#00AEEF"/>
			<stop  offset="1" style="stop-color:#0068B3"/>
		</linearGradient>
		<path class="st7" d="M380.9,433.5c-11.2-16.3-31.7,0.2-31.7,0.2c-14.5,10.7-16.5,27.5-17.7,32.9l-0.1,0.5l0,0
			c-0.1,0.5-0.2,0.9-0.2,0.9c5.6-13,22.4-21.5,26.3-11c4.8,13-14.1,20.7-14.1,20.7C366.4,480.6,392.2,449.9,380.9,433.5z"/>
		
			<linearGradient id="SVGID_8_" gradientUnits="userSpaceOnUse" x1="423.7368" y1="709.7808" x2="387.5775" y2="680.1277" gradientTransform="matrix(1.0045 -0.2119 -0.1514 1.0275 62.7063 -170.9737)">
			<stop  offset="0" style="stop-color:#FFFFFF"/>
			<stop  offset="1" style="stop-color:#FFFFFF;stop-opacity:0"/>
		</linearGradient>
		<path class="st8" d="M380.8,433.5c-11.2-16.3-31.7,0.2-31.7,0.2c-14.5,10.7-16.5,27.5-17.7,32.9l-0.1,0.5l0,0
			c-0.1,0.5-0.2,0.9-0.2,0.9s7.4-28.8,30.5-30.3c23.1-1.5,9.6,38.8-18.3,40.1C366.3,480.6,392,450,380.8,433.5z"/>
		
			<linearGradient id="SVGID_9_" gradientUnits="userSpaceOnUse" x1="566.7495" y1="676.0953" x2="587.4998" y2="700.0328" gradientTransform="matrix(0.9821 -0.1885 0.1885 0.9821 -494.6982 -101.2584)">
			<stop  offset="0" style="stop-color:#FFFFFF"/>
			<stop  offset="1" style="stop-color:#FFFFFF;stop-opacity:0"/>
		</linearGradient>
		<path class="st9" d="M205.7,484.2c-3.2-7.7,0.5-16.6,8.2-19.7c5.2-2.2,11-1.2,15.1,2.1c-4.4-6.7-13.1-9.6-20.8-6.5
			c-8.7,3.6-12.8,13.5-9.3,22.2c2.8,6.7,9.3,10.7,16.1,10.5C211,491.6,207.4,488.6,205.7,484.2z"/>
		
			<linearGradient id="SVGID_10_" gradientUnits="userSpaceOnUse" x1="544.8405" y1="716.0366" x2="565.5908" y2="739.9741" gradientTransform="matrix(0.9821 -0.1885 0.1885 0.9821 -494.6982 -101.2584)">
			<stop  offset="0" style="stop-color:#FFFFFF"/>
			<stop  offset="1" style="stop-color:#FFFFFF;stop-opacity:0"/>
		</linearGradient>
		<path class="st10" d="M191.7,527.6c-3.2-7.7,0.5-16.6,8.2-19.7c5.2-2.2,11-1.2,15.1,2.1c-4.4-6.7-13.1-9.6-20.8-6.5
			c-8.7,3.6-12.8,13.5-9.3,22.2c2.8,6.7,9.3,10.7,16.1,10.5C197,535,193.5,531.9,191.7,527.6z"/>
	</g>
	<g>
		<path class="st13" d="M395,558l-13.6-41.7L367.8,558h-18.1l-23.1-63l18.4-0.1l14.1,45.2l13.6-45.2h17.7l13.9,45.2l13.9-45.2H436
			L413,558H395z"/>
		<path class="st13" d="M500,532h-45.3c2.1,8,8.2,12.7,16.3,12.7c6,0,11.6-2.3,16-6.7l9.5,9.6c-6.3,7-15.6,11.2-27,11.2
			c-20.2,0-33-12.9-33-32c0-19.5,13.3-32.4,32.5-32.4C491.2,494.3,501.6,509,500,532z M483.1,521.3c-0.2-8.3-5.6-13.7-14-13.7
			c-8,0-13.4,5.4-14.8,13.7H483.1z"/>
		<path class="st13" d="M580.3,526.8c0,19.1-11.6,31.9-29.3,31.9c-8.8,0-15.7-3.5-20.3-9.9v9.2h-18.1v-87.1h18.1v33.2
			c4.5-6.3,11.4-9.9,20-9.9C568.3,494.3,580.3,507.3,580.3,526.8z M562,526.2c0-10.1-6.3-17.4-15.6-17.4c-9.3,0-15.7,7.2-15.7,17.4
			c0,10.4,6.5,17.5,15.7,17.5C555.7,543.7,562,536.5,562,526.2z"/>
		<path class="st13" d="M631.3,554.5c-4.7,2.7-10.6,4.3-16.4,4.3c-11.3,0-19.8-6.5-19.8-19.5v-29.2h-8.8v-12.4h8.8v-17.4h18v17.4
			h17.1v12.6H613v26.1c0,5.3,2.2,7.4,6.1,7.3c2.3,0,5.2-0.8,8.5-2.3L631.3,554.5z"/>
		<path class="st13" d="M661,476.9c0,5.9-4,10.1-9.7,10.1s-9.7-4.2-9.7-10.1c0-5.9,4-10.1,9.7-10.1S661,471,661,476.9z M642.2,558
			v-63.2h18.1V558H642.2z"/>
		<path class="st13" d="M740,558h-18v-9.3c-4.5,6.5-11.3,10-20,10c-18,0-29.8-13-29.8-32.5c0-19.3,11.7-32,29.3-32
			c8.9,0,15.8,3.5,20.4,10v-33.2h18V558z M722,526.7c0-10.3-6.5-17.5-15.7-17.5c-9.4,0-15.8,7.3-16,17.5c0.1,10.3,6.5,17.5,16,17.5
			C715.6,544.2,722,537,722,526.7z"/>
		<path class="st13" d="M816.2,532h-45.3c2.1,8,8.2,12.7,16.3,12.7c6,0,11.6-2.3,16-6.7l9.5,9.6c-6.3,7-15.6,11.2-27,11.2
			c-20.2,0-33-12.9-33-32c0-19.5,13.3-32.4,32.5-32.4C807.4,494.3,817.7,509,816.2,532z M799.3,521.3c-0.2-8.3-5.6-13.7-14-13.7
			c-8,0-13.4,5.4-14.8,13.7H799.3z"/>
	</g>
</g>
</svg>
