<?xml version="1.0" encoding="utf-8"?>
<!-- Generator: Adobe Illustrator 24.3.0, SVG Export Plug-In . SVG Version: 6.00 Build 0)  -->
<svg version="1.1" id="Layer_1" xmlns="http://www.w3.org/2000/svg" xmlns:xlink="http://www.w3.org/1999/xlink" x="0px" y="0px"
	 viewBox="0 0 1000 1000" style="enable-background:new 0 0 1000 1000;" xml:space="preserve">
<style type="text/css">
	.st0{fill:#022A4F;}
	.st1{fill:url(#SVGID_1_);}
	.st2{fill:url(#SVGID_2_);}
	.st3{fill:url(#SVGID_3_);}
	.st4{fill:url(#SVGID_4_);}
	.st5{fill:url(#SVGID_5_);}
	.st6{fill:url(#SVGID_6_);}
	.st7{fill:url(#SVGID_7_);}
	.st8{fill:url(#SVGID_8_);}
	.st9{fill:url(#SVGID_9_);}
	.st10{fill:url(#SVGID_10_);}
	.st11{fill:url(#SVGID_11_);}
	.st12{fill:url(#SVGID_12_);}
	.st13{fill:#FFFFFF;}
	.st14{fill:url(#SVGID_13_);}
	.st15{fill:url(#SVGID_14_);}
	.st16{fill:url(#SVGID_15_);}
	.st17{fill:url(#SVGID_16_);}
	.st18{fill:url(#SVGID_17_);}
	.st19{fill:url(#SVGID_18_);}
	.st20{fill:url(#SVGID_19_);}
	.st21{fill:url(#SVGID_20_);}
	.st22{fill:url(#SVGID_21_);}
	.st23{fill:url(#SVGID_22_);}
	.st24{fill:url(#SVGID_23_);}
	.st25{fill:url(#SVGID_24_);}
	.st26{fill:url(#SVGID_25_);}
	.st27{fill:url(#SVGID_26_);}
	.st28{fill:url(#SVGID_27_);}
	.st29{fill:url(#SVGID_28_);}
	.st30{fill:url(#SVGID_29_);}
	.st31{fill:url(#SVGID_30_);}
	.st32{fill:url(#SVGID_31_);}
	.st33{fill:url(#SVGID_32_);}
	.st34{fill:url(#SVGID_33_);}
	.st35{fill:url(#SVGID_34_);}
	.st36{fill:url(#SVGID_35_);}
	.st37{fill:url(#SVGID_36_);}
	.st38{fill:url(#SVGID_37_);}
	.st39{fill:url(#SVGID_38_);}
	.st40{fill:url(#SVGID_39_);}
	.st41{fill:url(#SVGID_40_);}
	.st42{fill:url(#SVGID_41_);}
	.st43{fill:url(#SVGID_42_);}
	.st44{fill:url(#SVGID_43_);}
	.st45{fill:url(#SVGID_44_);}
	.st46{fill:url(#SVGID_45_);}
	.st47{fill:url(#SVGID_46_);}
	.st48{fill:url(#SVGID_47_);}
	.st49{fill:url(#SVGID_48_);}
	.st50{fill:url(#SVGID_49_);}
	.st51{fill:url(#SVGID_50_);}
	.st52{fill:url(#SVGID_51_);}
	.st53{fill:url(#SVGID_52_);}
	.st54{fill:url(#SVGID_53_);}
	.st55{fill:url(#SVGID_54_);}
	.st56{fill:url(#SVGID_55_);}
	.st57{fill:url(#SVGID_56_);}
	.st58{fill:url(#SVGID_57_);}
	.st59{fill:url(#SVGID_58_);}
	.st60{fill:url(#SVGID_59_);}
	.st61{fill:url(#SVGID_60_);}
	.st62{fill:url(#SVGID_61_);}
	.st63{fill:url(#SVGID_62_);}
	.st64{fill:url(#SVGID_63_);}
	.st65{fill:url(#SVGID_64_);}
	.st66{fill:url(#SVGID_65_);}
	.st67{fill:url(#SVGID_66_);}
	.st68{fill:url(#SVGID_67_);}
	.st69{fill:url(#SVGID_68_);}
	.st70{fill:url(#SVGID_69_);}
	.st71{fill:url(#SVGID_70_);}
	.st72{fill:url(#SVGID_71_);}
	.st73{fill:url(#SVGID_72_);}
</style>
<rect class="st0" width="1000" height="1000"/>
<g>
	<g>
		<path class="st13" d="M273.6,728.2l-17.5-53.5l-17.3,53.5h-23.2L186,647.3l23.6-0.2l18.1,58l17.5-58h22.7l17.8,58l17.8-58h22.9
			l-29.5,81H273.6z"/>
		<path class="st13" d="M408.4,694.8h-58.1C353,705,360.8,711,371.2,711c7.7,0,14.9-3,20.5-8.6l12.2,12.3c-8.1,9-20,14.3-34.6,14.3
			c-25.9,0-42.3-16.6-42.3-41.1c0-25,17-41.6,41.7-41.6C397.1,646.4,410.3,665.3,408.4,694.8z M386.7,681.1
			c-0.3-10.7-7.2-17.6-17.9-17.6c-10.2,0-17.2,6.9-19,17.6H386.7z"/>
		<path class="st13" d="M511.4,688.1c0,24.5-14.9,41-37.6,41c-11.3,0-20.2-4.5-26-12.6v11.7h-23.2V616.5h23.2v42.6
			c5.7-8.1,14.6-12.6,25.6-12.6C496,646.4,511.4,663.1,511.4,688.1z M487.9,687.4c0-12.9-8.1-22.3-20-22.3
			c-11.9,0-20.2,9.2-20.2,22.3c0,13.4,8.3,22.4,20.2,22.4C479.7,709.8,487.9,700.6,487.9,687.4z"/>
		<path class="st13" d="M576.7,723.7c-6,3.5-13.6,5.6-21.1,5.6c-14.5,0-25.4-8.3-25.4-25v-37.5h-11.3v-16h11.3v-22.3h23v22.3h22
			v16.1h-22v33.4c0,6.8,2.9,9.5,7.8,9.3c3,0,6.6-1.1,10.8-3L576.7,723.7z"/>
		<path class="st13" d="M614.8,624.1c0,7.5-5.1,12.9-12.5,12.9c-7.4,0-12.5-5.4-12.5-12.9s5.1-12.9,12.5-12.9
			C609.7,611.2,614.8,616.6,614.8,624.1z M590.7,728.2v-81h23.2v81H590.7z"/>
		<path class="st13" d="M716.1,728.2h-23v-11.9c-5.7,8.3-14.5,12.8-25.6,12.8c-23,0-38.2-16.7-38.2-41.7c0-24.7,15.1-41.1,37.6-41.1
			c11.4,0,20.3,4.5,26.2,12.8v-42.6h23V728.2z M693.1,688c0-13.3-8.3-22.4-20.2-22.4c-12,0-20.3,9.3-20.5,22.4
			c0.2,13.2,8.3,22.4,20.5,22.4C684.8,710.4,693.1,701.2,693.1,688z"/>
		<path class="st13" d="M813.8,694.8h-58.1c2.7,10.2,10.5,16.3,20.9,16.3c7.7,0,14.9-3,20.5-8.6l12.2,12.3c-8.1,9-20,14.3-34.6,14.3
			c-25.9,0-42.3-16.6-42.3-41.1c0-25,17-41.6,41.7-41.6C802.5,646.4,815.8,665.3,813.8,694.8z M792.1,681.1
			c-0.3-10.7-7.2-17.6-17.9-17.6c-10.2,0-17.2,6.9-19,17.6H792.1z"/>
	</g>
	<g>
		
			<linearGradient id="SVGID_1_" gradientUnits="userSpaceOnUse" x1="481.4756" y1="692.5521" x2="550.2182" y2="692.5521" gradientTransform="matrix(0.9821 -0.1885 0.1885 0.9821 -302.4317 -119.5431)">
			<stop  offset="0" style="stop-color:#FDB813"/>
			<stop  offset="1" style="stop-color:#F15A24"/>
		</linearGradient>
		<circle class="st1" cx="334.7" cy="463.4" r="34.4"/>
		
			<linearGradient id="SVGID_2_" gradientUnits="userSpaceOnUse" x1="525.6776" y1="612.2125" x2="594.4203" y2="612.2125" gradientTransform="matrix(0.9821 -0.1885 0.1885 0.9821 -302.4317 -119.5431)">
			<stop  offset="0" style="stop-color:#FDB813"/>
			<stop  offset="1" style="stop-color:#F15A24"/>
		</linearGradient>
		<circle class="st2" cx="363" cy="376.1" r="34.4"/>
		
			<linearGradient id="SVGID_3_" gradientUnits="userSpaceOnUse" x1="664.5079" y1="508.9487" x2="595.8467" y2="816.9141" gradientTransform="matrix(1.0044 -0.2123 -0.1509 1.0275 -92.7667 -142.934)">
			<stop  offset="0" style="stop-color:#FDB813"/>
			<stop  offset="1" style="stop-color:#F15A24"/>
		</linearGradient>
		<path class="st3" d="M477.3,304.3c-23,15-40.9,39.1-48,63.9L387.5,513c-3.8,13.4-11.2,27-21.6,38.2c-7.4,7.9-16.9,15.5-28.5,19.6
			c0,0,91.8,8.3,115.3-74.2l48.9-169.7c8.2-28.3,22.7-43.8,22.7-43.8C504.9,288.8,489.5,296.3,477.3,304.3z"/>
		
			<linearGradient id="SVGID_4_" gradientUnits="userSpaceOnUse" x1="677.6257" y1="479.4149" x2="629.6639" y2="727.8066" gradientTransform="matrix(1.0044 -0.2123 -0.1509 1.0275 -92.7667 -142.934)">
			<stop  offset="0" style="stop-color:#FFFFFF"/>
			<stop  offset="1" style="stop-color:#FFFFFF;stop-opacity:0"/>
		</linearGradient>
		<path class="st4" d="M524.3,283.1c0,0-52.3,16.2-71.6,87l-29.8,110.5l-26.3,1.5l33.1-114.4c11.5-39.6,44.5-68.3,84.3-81.2
			L524.3,283.1z"/>
		
			<linearGradient id="SVGID_5_" gradientUnits="userSpaceOnUse" x1="751.5986" y1="566.7187" x2="680.1141" y2="887.3475" gradientTransform="matrix(1.0045 -0.2119 -0.1514 1.0275 -91.705 -142.9636)">
			<stop  offset="0" style="stop-color:#00AEEF"/>
			<stop  offset="1" style="stop-color:#0068B3"/>
		</linearGradient>
		<path class="st5" d="M513,353.3l-0.2,0.1l-46.1,159.8c-4.7,15.3-13.4,30.7-25.5,43.3c-8.5,8.9-19.5,17.4-32.8,21.7
			c0,0,103.7,12.2,132.4-82.1l0,0l0.2-0.1l46.1-159.8c4.7-15.3,13.4-30.7,25.5-43.3c8.5-8.9,19.5-17.4,32.8-21.7
			C645.5,271.3,541.8,259.1,513,353.3z"/>
		
			<linearGradient id="SVGID_6_" gradientUnits="userSpaceOnUse" x1="782.1772" y1="475.325" x2="725.6628" y2="768.0103" gradientTransform="matrix(1.0045 -0.2119 -0.1514 1.0275 -91.705 -142.9636)">
			<stop  offset="0" style="stop-color:#FFFFFF"/>
			<stop  offset="1" style="stop-color:#FFFFFF;stop-opacity:0"/>
		</linearGradient>
		<path class="st6" d="M645.5,271.3c0,0-72.9-4.2-103.2,91.3s-39.1,142.2-39.1,142.2l-30.4-11.5l41.4-144
			c13.6-44.5,57.1-80.3,124.2-78.5L645.5,271.3z"/>
		
			<linearGradient id="SVGID_7_" gradientUnits="userSpaceOnUse" x1="853.1265" y1="641.1497" x2="782.9507" y2="602.2754" gradientTransform="matrix(1.0045 -0.2119 -0.1514 1.0275 -91.705 -142.9636)">
			<stop  offset="0" style="stop-color:#00AEEF"/>
			<stop  offset="1" style="stop-color:#0068B3"/>
		</linearGradient>
		<path class="st7" d="M698.2,290.6c-22.6-33-64,0.5-64,0.5c-29.3,21.5-33.3,55.4-35.8,66.5l-0.2,1l0,0c-0.2,1.1-0.4,1.7-0.4,1.7
			c11.3-26.2,45.2-43.3,53-22.2c9.7,26.2-28.4,41.9-28.4,41.9C669,385.6,720.9,323.8,698.2,290.6z"/>
		
			<linearGradient id="SVGID_8_" gradientUnits="userSpaceOnUse" x1="887.9387" y1="673.8542" x2="814.9862" y2="614.0282" gradientTransform="matrix(1.0045 -0.2119 -0.1514 1.0275 -91.705 -142.9636)">
			<stop  offset="0" style="stop-color:#FFFFFF"/>
			<stop  offset="1" style="stop-color:#FFFFFF;stop-opacity:0"/>
		</linearGradient>
		<path class="st8" d="M697.9,290.7c-22.6-33-64,0.5-64,0.5c-29.3,21.5-33.3,55.4-35.8,66.5l-0.2,1l0,0c-0.2,1.1-0.4,1.7-0.4,1.7
			s15-58.1,61.6-61.2c46.6-3.1,19.4,78.2-37,80.9C668.8,385.7,720.7,323.8,697.9,290.7z"/>
		
			<linearGradient id="SVGID_9_" gradientUnits="userSpaceOnUse" x1="517.3208" y1="562.9248" x2="559.1851" y2="611.2196" gradientTransform="matrix(0.9821 -0.1885 0.1885 0.9821 -302.4317 -119.5431)">
			<stop  offset="0" style="stop-color:#FFFFFF"/>
			<stop  offset="1" style="stop-color:#FFFFFF;stop-opacity:0"/>
		</linearGradient>
		<path class="st9" d="M344.7,393c-6.4-15.6,1-33.4,16.6-39.8c10.5-4.3,22.1-2.3,30.5,4.2c-8.8-13.6-26.3-19.4-41.9-13
			c-17.6,7.2-25.9,27.3-18.7,44.9c5.6,13.5,18.8,21.6,32.5,21.3C355.4,407.9,348.3,401.7,344.7,393z"/>
		
			<linearGradient id="SVGID_10_" gradientUnits="userSpaceOnUse" x1="473.1187" y1="643.5077" x2="514.983" y2="691.8025" gradientTransform="matrix(0.9821 -0.1885 0.1885 0.9821 -302.4317 -119.5431)">
			<stop  offset="0" style="stop-color:#FFFFFF"/>
			<stop  offset="1" style="stop-color:#FFFFFF;stop-opacity:0"/>
		</linearGradient>
		<path class="st10" d="M316.5,480.5c-6.4-15.6,1-33.4,16.6-39.8c10.5-4.3,22.1-2.3,30.5,4.2c-8.8-13.6-26.3-19.4-41.9-13
			c-17.6,7.2-25.9,27.3-18.7,44.9c5.6,13.5,18.8,21.6,32.5,21.3C327.2,495.3,320.1,489.2,316.5,480.5z"/>
	</g>
</g>
</svg>
