<?xml version="1.0" encoding="utf-8"?>
<!-- Generator: Adobe Illustrator 24.3.0, SVG Export Plug-In . SVG Version: 6.00 Build 0)  -->
<svg version="1.1" id="Layer_1" xmlns="http://www.w3.org/2000/svg" xmlns:xlink="http://www.w3.org/1999/xlink" x="0px" y="0px"
	 viewBox="0 0 1000 1000" style="enable-background:new 0 0 1000 1000;" xml:space="preserve">
<style type="text/css">
	.st0{fill:#022A4F;}
	.st1{fill:url(#SVGID_1_);}
	.st2{fill:url(#SVGID_2_);}
	.st3{fill:url(#SVGID_3_);}
	.st4{fill:url(#SVGID_4_);}
	.st5{fill:url(#SVGID_5_);}
	.st6{fill:url(#SVGID_6_);}
	.st7{fill:url(#SVGID_7_);}
	.st8{fill:url(#SVGID_8_);}
	.st9{fill:url(#SVGID_9_);}
	.st10{fill:url(#SVGID_10_);}
	.st11{fill:url(#SVGID_11_);}
	.st12{fill:url(#SVGID_12_);}
	.st13{fill:#FFFFFF;}
	.st14{fill:url(#SVGID_13_);}
	.st15{fill:url(#SVGID_14_);}
	.st16{fill:url(#SVGID_15_);}
	.st17{fill:url(#SVGID_16_);}
	.st18{fill:url(#SVGID_17_);}
	.st19{fill:url(#SVGID_18_);}
	.st20{fill:url(#SVGID_19_);}
	.st21{fill:url(#SVGID_20_);}
	.st22{fill:url(#SVGID_21_);}
	.st23{fill:url(#SVGID_22_);}
	.st24{fill:url(#SVGID_23_);}
	.st25{fill:url(#SVGID_24_);}
	.st26{fill:url(#SVGID_25_);}
	.st27{fill:url(#SVGID_26_);}
	.st28{fill:url(#SVGID_27_);}
	.st29{fill:url(#SVGID_28_);}
	.st30{fill:url(#SVGID_29_);}
	.st31{fill:url(#SVGID_30_);}
	.st32{fill:url(#SVGID_31_);}
	.st33{fill:url(#SVGID_32_);}
	.st34{fill:url(#SVGID_33_);}
	.st35{fill:url(#SVGID_34_);}
	.st36{fill:url(#SVGID_35_);}
	.st37{fill:url(#SVGID_36_);}
	.st38{fill:url(#SVGID_37_);}
	.st39{fill:url(#SVGID_38_);}
	.st40{fill:url(#SVGID_39_);}
	.st41{fill:url(#SVGID_40_);}
	.st42{fill:url(#SVGID_41_);}
	.st43{fill:url(#SVGID_42_);}
	.st44{fill:url(#SVGID_43_);}
	.st45{fill:url(#SVGID_44_);}
	.st46{fill:url(#SVGID_45_);}
	.st47{fill:url(#SVGID_46_);}
	.st48{fill:url(#SVGID_47_);}
	.st49{fill:url(#SVGID_48_);}
	.st50{fill:url(#SVGID_49_);}
	.st51{fill:url(#SVGID_50_);}
	.st52{fill:url(#SVGID_51_);}
	.st53{fill:url(#SVGID_52_);}
	.st54{fill:url(#SVGID_53_);}
	.st55{fill:url(#SVGID_54_);}
	.st56{fill:url(#SVGID_55_);}
	.st57{fill:url(#SVGID_56_);}
	.st58{fill:url(#SVGID_57_);}
	.st59{fill:url(#SVGID_58_);}
	.st60{fill:url(#SVGID_59_);}
	.st61{fill:url(#SVGID_60_);}
	.st62{fill:url(#SVGID_61_);}
	.st63{fill:url(#SVGID_62_);}
	.st64{fill:url(#SVGID_63_);}
	.st65{fill:url(#SVGID_64_);}
	.st66{fill:url(#SVGID_65_);}
	.st67{fill:url(#SVGID_66_);}
	.st68{fill:url(#SVGID_67_);}
	.st69{fill:url(#SVGID_68_);}
	.st70{fill:url(#SVGID_69_);}
	.st71{fill:url(#SVGID_70_);}
	.st72{fill:url(#SVGID_71_);}
	.st73{fill:url(#SVGID_72_);}
</style>
<rect class="st0" width="1000" height="1000"/>
<g>
	<g>
		
			<linearGradient id="SVGID_1_" gradientUnits="userSpaceOnUse" x1="145.7673" y1="751.6899" x2="256.9979" y2="751.6899" gradientTransform="matrix(0.9821 -0.1885 0.1885 0.9821 -110.1651 -137.8278)">
			<stop  offset="0" style="stop-color:#FDB813"/>
			<stop  offset="1" style="stop-color:#F15A24"/>
		</linearGradient>
		<circle class="st1" cx="229.3" cy="562.4" r="55.6"/>
		
			<linearGradient id="SVGID_2_" gradientUnits="userSpaceOnUse" x1="217.2895" y1="621.6946" x2="328.5201" y2="621.6946" gradientTransform="matrix(0.9821 -0.1885 0.1885 0.9821 -110.1651 -137.8278)">
			<stop  offset="0" style="stop-color:#FDB813"/>
			<stop  offset="1" style="stop-color:#F15A24"/>
		</linearGradient>
		<circle class="st2" cx="275" cy="421.3" r="55.6"/>
		
			<linearGradient id="SVGID_3_" gradientUnits="userSpaceOnUse" x1="807.7296" y1="472.6273" x2="696.6309" y2="970.9377" gradientTransform="matrix(1.0044 -0.2123 -0.1509 1.0275 -246.6718 -114.8494)">
			<stop  offset="0" style="stop-color:#FDB813"/>
			<stop  offset="1" style="stop-color:#F15A24"/>
		</linearGradient>
		<path class="st3" d="M460,305c-37.3,24.3-66.1,63.3-77.7,103.4l-67.6,234.3c-6.2,21.7-18.1,43.6-35,61.8
			c-11.9,12.8-27.3,25.1-46.2,31.7c0,0,148.6,13.5,186.6-120.1l79.2-274.6c13.2-45.9,36.8-70.9,36.8-70.9
			C504.7,280,479.8,292.1,460,305z"/>
		
			<linearGradient id="SVGID_4_" gradientUnits="userSpaceOnUse" x1="828.9553" y1="424.8395" x2="751.3495" y2="826.7554" gradientTransform="matrix(1.0044 -0.2123 -0.1509 1.0275 -246.6718 -114.8494)">
			<stop  offset="0" style="stop-color:#FFFFFF"/>
			<stop  offset="1" style="stop-color:#FFFFFF;stop-opacity:0"/>
		</linearGradient>
		<path class="st4" d="M536,270.7c0,0-84.7,26.1-115.8,140.8l-48.3,178.7l-42.6,2.5l53.5-185.1c18.6-64.1,72-110.5,136.4-131.3
			L536,270.7z"/>
		
			<linearGradient id="SVGID_5_" gradientUnits="userSpaceOnUse" x1="949.7164" y1="566.4796" x2="834.0494" y2="1085.2804" gradientTransform="matrix(1.0045 -0.2119 -0.1514 1.0275 -246.1163 -114.9534)">
			<stop  offset="0" style="stop-color:#00AEEF"/>
			<stop  offset="1" style="stop-color:#0068B3"/>
		</linearGradient>
		<path class="st5" d="M517.9,384.4l-0.3,0.1l-74.7,258.6c-7.6,24.8-21.6,49.6-41.3,70.1c-13.8,14.4-31.6,28.1-53.1,35.1
			c0,0,167.7,19.7,214.3-132.8l0,0l0.3-0.1l74.7-258.6c7.6-24.8,21.6-49.6,41.3-70.1c13.8-14.4,31.6-28.1,53.1-35.1
			C732.1,251.6,564.4,231.9,517.9,384.4z"/>
		
			<linearGradient id="SVGID_6_" gradientUnits="userSpaceOnUse" x1="999.1949" y1="418.5981" x2="907.7505" y2="892.184" gradientTransform="matrix(1.0045 -0.2119 -0.1514 1.0275 -246.1163 -114.9534)">
			<stop  offset="0" style="stop-color:#FFFFFF"/>
			<stop  offset="1" style="stop-color:#FFFFFF;stop-opacity:0"/>
		</linearGradient>
		<path class="st6" d="M732.1,251.6c0,0-117.9-6.8-167,147.7c-49,154.6-63.2,230.2-63.2,230.2l-49.2-18.6l66.9-233
			c22-72,92.4-130,201-127.1L732.1,251.6z"/>
		
			<linearGradient id="SVGID_7_" gradientUnits="userSpaceOnUse" x1="1113.996" y1="686.9144" x2="1000.4465" y2="624.0129" gradientTransform="matrix(1.0045 -0.2119 -0.1514 1.0275 -246.1163 -114.9534)">
			<stop  offset="0" style="stop-color:#00AEEF"/>
			<stop  offset="1" style="stop-color:#0068B3"/>
		</linearGradient>
		<path class="st7" d="M817.4,283c-36.6-53.3-103.5,0.7-103.5,0.7c-47.4,34.8-53.8,89.7-57.9,107.5l-0.4,1.7l0,0
			c-0.4,1.8-0.6,2.8-0.6,2.8c18.3-42.4,73.1-70,85.7-35.9c15.7,42.3-45.9,67.7-45.9,67.7C770.2,436.7,854.2,336.6,817.4,283z"/>
		
			<linearGradient id="SVGID_8_" gradientUnits="userSpaceOnUse" x1="1170.3246" y1="739.8328" x2="1052.2822" y2="643.0298" gradientTransform="matrix(1.0045 -0.2119 -0.1514 1.0275 -246.1163 -114.9534)">
			<stop  offset="0" style="stop-color:#FFFFFF"/>
			<stop  offset="1" style="stop-color:#FFFFFF;stop-opacity:0"/>
		</linearGradient>
		<path class="st8" d="M817,283c-36.6-53.3-103.5,0.7-103.5,0.7c-47.4,34.8-53.8,89.7-57.9,107.5l-0.4,1.7l0,0
			c-0.4,1.8-0.6,2.8-0.6,2.8s24.2-94.1,99.7-99c75.5-4.9,31.3,126.6-59.9,130.9C769.8,436.8,853.8,336.7,817,283z"/>
		
			<linearGradient id="SVGID_9_" gradientUnits="userSpaceOnUse" x1="203.7675" y1="541.9436" x2="271.507" y2="620.0881" gradientTransform="matrix(0.9821 -0.1885 0.1885 0.9821 -110.1651 -137.8278)">
			<stop  offset="0" style="stop-color:#FFFFFF"/>
			<stop  offset="1" style="stop-color:#FFFFFF;stop-opacity:0"/>
		</linearGradient>
		<path class="st9" d="M245.4,448.6c-10.4-25.2,1.6-54.1,26.9-64.5c17.1-7,35.8-3.8,49.3,6.9c-14.3-22-42.6-31.4-67.8-21.1
			c-28.4,11.7-41.9,44.2-30.3,72.6c9,21.9,30.4,34.9,52.7,34.4C262.8,472.6,251.2,462.7,245.4,448.6z"/>
		
			<linearGradient id="SVGID_10_" gradientUnits="userSpaceOnUse" x1="132.2454" y1="672.3325" x2="199.9848" y2="750.4771" gradientTransform="matrix(0.9821 -0.1885 0.1885 0.9821 -110.1651 -137.8278)">
			<stop  offset="0" style="stop-color:#FFFFFF"/>
			<stop  offset="1" style="stop-color:#FFFFFF;stop-opacity:0"/>
		</linearGradient>
		<path class="st10" d="M199.8,590.1c-10.4-25.2,1.6-54.1,26.9-64.5c17.1-7,35.8-3.8,49.3,6.9c-14.3-22-42.6-31.4-67.8-21.1
			c-28.4,11.7-41.9,44.2-30.3,72.6c9,21.9,30.4,34.9,52.7,34.4C217.1,614.2,205.6,604.2,199.8,590.1z"/>
	</g>
</g>
</svg>
